<svg xmlns:xlink="http://www.w3.org/1999/xlink" xmlns="http://www.w3.org/2000/svg" viewBox="0 0 256 256" focusable="false" color="var(--token-4fdd7769-e1d0-45b2-8e3d-fe484baba321, #eb5d1e)" style="user-select: none; width: 100%; height: 100%; display: inline-block; fill: var(--token-4fdd7769-e1d0-45b2-8e3d-fe484baba321, #eb5d1e); color: var(--token-4fdd7769-e1d0-45b2-8e3d-fe484baba321, #eb5d1e); flex-shrink: 0;" width="256" height="256"><g color="var(--token-4fdd7769-e1d0-45b2-8e3d-fe484baba321, #eb5d1e)" weight="duotone" fill="#eb5d1e"><path d="M160,112a32,32,0,1,1-32-32A32,32,0,0,1,160,112Z" opacity="0.2" fill="#eb5d1e"/><path d="M224,40V76a8,8,0,0,1-16,0V48H180a8,8,0,0,1,0-16h36A8,8,0,0,1,224,40Zm-8,132a8,8,0,0,0-8,8v28H180a8,8,0,0,0,0,16h36a8,8,0,0,0,8-8V180A8,8,0,0,0,216,172ZM76,208H48V180a8,8,0,0,0-16,0v36a8,8,0,0,0,8,8H76a8,8,0,0,0,0-16ZM40,84a8,8,0,0,0,8-8V48H76a8,8,0,0,0,0-16H40a8,8,0,0,0-8,8V76A8,8,0,0,0,40,84Zm136,92a8,8,0,0,1-6.41-3.19,52,52,0,0,0-83.2,0,8,8,0,1,1-12.8-9.62A67.94,67.94,0,0,1,101,141.51a40,40,0,1,1,53.94,0,67.94,67.94,0,0,1,27.43,21.68A8,8,0,0,1,176,176Zm-48-40a24,24,0,1,0-24-24A24,24,0,0,0,128,136Z" fill="#eb5d1e"/></g></svg>