<?xml version="1.0" encoding="UTF-8"?>
<svg version="1.1" xmlns="http://www.w3.org/2000/svg" width="512" height="512">
<path d="M0 0 C21.78 0 43.56 0 66 0 C66 0.66 66 1.32 66 2 C69.3 2 72.6 2 76 2 C76 2.66 76 3.32 76 4 C78.31 4 80.62 4 83 4 C83 4.66 83 5.32 83 6 C84.98 6 86.96 6 89 6 C89 6.66 89 7.32 89 8 C90.65 8 92.3 8 94 8 C94 8.66 94 9.32 94 10 C95.65 10 97.3 10 99 10 C99 10.66 99 11.32 99 12 C100.32 12 101.64 12 103 12 C103 12.66 103 13.32 103 14 C104.32 14 105.64 14 107 14 C107 14.66 107 15.32 107 16 C107.9075 16.268125 108.815 16.53625 109.75 16.8125 C112.72991834 17.90131632 114.68590359 18.86391101 117 21 C117 21.66 117 22.32 117 23 C117.61875 23.144375 118.2375 23.28875 118.875 23.4375 C121 24 121 24 123 25 C123 25.66 123 26.32 123 27 C123.763125 27.28875 124.52625 27.5775 125.3125 27.875 C128 29 128 29 131 31 C131 31.66 131 32.32 131 33 C131.66 33 132.32 33 133 33 C133 33.66 133 34.32 133 35 C133.66 35 134.32 35 135 35 C135 35.66 135 36.32 135 37 C135.66 37 136.32 37 137 37 C137 37.66 137 38.32 137 39 C137.66 39 138.32 39 139 39 C144 44.47619048 144 44.47619048 144 47 C144.66 47.33 145.32 47.66 146 48 C147.07853167 49.08970816 148.11641766 50.2202463 149.125 51.375 C149.66382813 51.98085937 150.20265625 52.58671875 150.7578125 53.2109375 C152 55 152 55 152 58 C152.66 58 153.32 58 154 58 C154 58.99 154 59.98 154 61 C154.66 61 155.32 61 156 61 C156 61.99 156 62.98 156 64 C156.66 64 157.32 64 158 64 C158 65.32 158 66.64 158 68 C158.66 68 159.32 68 160 68 C160 69.32 160 70.64 160 72 C160.66 72 161.32 72 162 72 C162.67756882 73.55780332 163.34159457 75.12150096 164 76.6875 C164.37125 77.55761719 164.7425 78.42773438 165.125 79.32421875 C166.01870488 82.0572002 166.16449676 84.14700934 166 87 C166.66 87 167.32 87 168 87 C169.7479503 92.24385089 170.19392201 96.47322267 170 102 C170.66 102 171.32 102 172 102 C172.06058594 102.92683594 172.12117188 103.85367188 172.18359375 104.80859375 C172.30927734 106.60490234 172.30927734 106.60490234 172.4375 108.4375 C172.51871094 109.63246094 172.59992188 110.82742187 172.68359375 112.05859375 C172.67656114 114.88570244 172.67656114 114.88570244 174 116 C174.09971786 117.91458282 174.13080589 119.83282317 174.1328125 121.75 C174.13410156 122.9153125 174.13539063 124.080625 174.13671875 125.28125 C174.13285156 126.5084375 174.12898438 127.735625 174.125 129 C174.12886719 130.2271875 174.13273437 131.454375 174.13671875 132.71875 C174.13478516 134.46671875 174.13478516 134.46671875 174.1328125 136.25 C174.13168457 137.32765625 174.13055664 138.4053125 174.12939453 139.515625 C174 142 174 142 173 143 C172.79111292 144.99603206 172.63224523 146.99742941 172.5 149 C172.11111111 154.88888889 172.11111111 154.88888889 171 156 C170.76924918 157.34747084 170.58846937 158.70377565 170.4375 160.0625 C170.293125 161.361875 170.14875 162.66125 170 164 C169.34 164 168.68 164 168 164 C168 165.98 168 167.96 168 170 C167.34 170 166.68 170 166 170 C166 171.98 166 173.96 166 176 C165.34 176 164.68 176 164 176 C164 177.65 164 179.3 164 181 C163.34 181 162.68 181 162 181 C162 182.32 162 183.64 162 185 C161.34 185 160.68 185 160 185 C160 186.32 160 187.64 160 189 C159.34 189 158.68 189 158 189 C158 190.32 158 191.64 158 193 C157.34 193 156.68 193 156 193 C156 194.32 156 195.64 156 197 C155.34 197 154.68 197 154 197 C154 197.99 154 198.98 154 200 C153.34 200 152.68 200 152 200 C152 200.99 152 201.98 152 203 C151.01 203.66 150.02 204.32 149 205 C148.505 205.845625 148.01 206.69125 147.5 207.5625 C146 210 146 210 143 211 C142.28460355 212.30783414 141.62345927 213.64592439 141 215 C140.04119966 216.28187437 139.04006043 217.5331293 138 218.75 C137.484375 219.36359375 136.96875 219.9771875 136.4375 220.609375 C135 222 135 222 133 222 C133 222.66 133 223.32 133 224 C131.34997172 225.35386936 129.6825613 226.68678142 128 228 C127.67 228.66 127.34 229.32 127 230 C126.01 230 125.02 230 124 230 C124 230.66 124 231.32 124 232 C123.01 232 122.02 232 121 232 C121 232.66 121 233.32 121 234 C118 236 118 236 115 236 C115 236.66 115 237.32 115 238 C114.01 238 113.02 238 112 238 C112 238.66 112 239.32 112 240 C109.35261084 241.4606285 108.10551666 242 105 242 C105 242.66 105 243.32 105 244 C103.80375 244.433125 102.6075 244.86625 101.375 245.3125 C98.77111844 246.28437129 96.36920705 247.31539647 93.875 248.5625 C90.97303164 250.01348418 88.07976051 250.99728728 85 252 C84.67 252.33 84.34 252.66 84 253 C82.33382885 253.04063832 80.66611905 253.042721 79 253 C79 253.66 79 254.32 79 255 C76.03 255 73.06 255 70 255 C70 255.66 70 256.32 70 257 C65.38 257.33 60.76 257.66 56 258 C56 258.33 56 258.66 56 259 C17.06 259.33 -21.88 259.66 -62 260 C-61.92080079 292.11685471 -61.92080079 292.11685471 -61.81982422 324.23364258 C-61.81079102 330.4407959 -61.81079102 330.4407959 -61.80911255 333.34526062 C-61.80603839 335.37680435 -61.79899812 337.4083444 -61.78884888 339.43986511 C-61.77425464 342.51441809 -61.77218649 345.58874777 -61.77294922 348.66333008 C-61.765753 349.57063527 -61.75855679 350.47794046 -61.7511425 351.41273975 C-61.75527499 352.65322842 -61.75527499 352.65322842 -61.75949097 353.91877747 C-61.75764738 354.63869779 -61.75580379 355.35861811 -61.75390434 356.10035419 C-62 358 -62 358 -64 361 C-64.66 361 -65.32 361 -66 361 C-66 361.66 -66 362.32 -66 363 C-66.66 363 -67.32 363 -68 363 C-68 363.66 -68 364.32 -68 365 C-68.66 365 -69.32 365 -70 365 C-70 365.66 -70 366.32 -70 367 C-70.66 367 -71.32 367 -72 367 C-72 367.66 -72 368.32 -72 369 C-72.66 369 -73.32 369 -74 369 C-74 369.66 -74 370.32 -74 371 C-74.66 371 -75.32 371 -76 371 C-76 371.66 -76 372.32 -76 373 C-76.66 373 -77.32 373 -78 373 C-78 373.66 -78 374.32 -78 375 C-78.66 375 -79.32 375 -80 375 C-80 375.66 -80 376.32 -80 377 C-80.66 377 -81.32 377 -82 377 C-82.20625 377.53625 -82.4125 378.0725 -82.625 378.625 C-84.52259948 381.90267183 -86.90868497 384.78135285 -90 387 C-91.32 387 -92.64 387 -94 387 C-94 278.1 -94 169.2 -94 57 C-64 57 -64 57 -62 58 C-61.97666658 79.60916826 -61.95901864 101.21833445 -61.94818783 122.82751274 C-61.94302582 132.86043595 -61.93598491 142.89335134 -61.92456055 152.92626953 C-61.91461083 161.66829722 -61.90814588 170.41031926 -61.90591151 179.15235245 C-61.90460489 183.78358099 -61.90152212 188.41479333 -61.89426994 193.04601669 C-61.8875052 197.40106553 -61.88538397 201.75609143 -61.88689232 206.11114502 C-61.8866162 207.71318817 -61.88461376 209.31523204 -61.88079453 210.91727066 C-61.8758502 213.09737204 -61.87700447 215.27738579 -61.87974548 217.45748901 C-61.87882369 218.67978651 -61.8779019 219.90208401 -61.87695217 221.16142082 C-62 224 -62 224 -63 226 C-47.24078286 225.89289511 -31.48161683 225.78015819 -15.72248936 225.66066074 C-8.40574831 225.60531202 -1.08900238 225.55182737 6.2277832 225.50268555 C12.60286076 225.45986385 18.97790216 225.41359105 25.35292393 225.36312145 C28.73045889 225.3365042 32.1079866 225.31165082 35.48556328 225.29092598 C39.25011097 225.2669606 43.01456229 225.23689564 46.77905273 225.20532227 C47.90689682 225.1995668 49.03474091 225.19381134 50.19676208 225.18788147 C51.72599304 225.17319824 51.72599304 225.17319824 53.28611755 225.15821838 C54.62317828 225.14853956 54.62317828 225.14853956 55.98725033 225.1386652 C57.99737781 225.22156715 57.99737781 225.22156715 59 224 C60.68608966 223.92794489 62.37500659 223.91613932 64.0625 223.9375 C64.98160156 223.94652344 65.90070313 223.95554687 66.84765625 223.96484375 C67.55792969 223.97644531 68.26820313 223.98804688 69 224 C69 223.34 69 222.68 69 222 C71.31 222 73.62 222 76 222 C76 221.34 76 220.68 76 220 C79.61973402 218.68373308 82.09567131 218 86 218 C86 217.34 86 216.68 86 216 C87.32 216 88.64 216 90 216 C90 215.34 90 214.68 90 214 C91.87328654 212.80415985 93.80089397 211.69281168 95.75 210.625 C99.7822843 208.41406151 102.79598335 206.27617919 106 203 C106.66 203 107.32 203 108 203 C108 202.34 108 201.68 108 201 C108.99 201 109.98 201 111 201 C111 200.34 111 199.68 111 199 C111.66 199 112.32 199 113 199 C113 198.34 113 197.68 113 197 C113.66 197 114.32 197 115 197 C115 196.34 115 195.68 115 195 C115.66 195 116.32 195 117 195 C117 194.34 117 193.68 117 193 C117.66 193 118.32 193 119 193 C119.144375 192.38125 119.28875 191.7625 119.4375 191.125 C120 189 120 189 121 187 C121.66 187 122.32 187 123 187 C123 186.34 123 185.68 123 185 C123.66 185 124.32 185 125 185 C125 183.68 125 182.36 125 181 C125.66 181 126.32 181 127 181 C127 180.34 127 179.68 127 179 C127.66 179 128.32 179 129 179 C129 177.68 129 176.36 129 175 C129.66 175 130.32 175 131 175 C131 173.68 131 172.36 131 171 C131.66 171 132.32 171 133 171 C133 169.35 133 167.7 133 166 C133.66 166 134.32 166 135 166 C135 164.35 135 162.7 135 161 C135.66 161 136.32 161 137 161 C137 158.69 137 156.38 137 154 C137.66 154 138.32 154 139 154 C139 151.03 139 148.06 139 145 C139.66 145 140.32 145 141 145 C141 134.44 141 123.88 141 113 C140.34 113 139.68 113 139 113 C139 109.7 139 106.4 139 103 C138.34 103 137.68 103 137 103 C137 101.02 137 99.04 137 97 C136.34 97 135.68 97 135 97 C135 95.35 135 93.7 135 92 C134.34 92 133.68 92 133 92 C133 90.35 133 88.7 133 87 C132.34 87 131.68 87 131 87 C131 85.68 131 84.36 131 83 C130.34 83 129.68 83 129 83 C129 81.68 129 80.36 129 79 C128.34 79 127.68 79 127 79 C127 78.01 127 77.02 127 76 C126.34 76 125.68 76 125 76 C125 75.01 125 74.02 125 73 C124.34 73 123.68 73 123 73 C123 72.01 123 71.02 123 70 C122.34 70 121.68 70 121 70 C121 69.01 121 68.02 121 67 C120.34 67 119.68 67 119 67 C119 66.34 119 65.68 119 65 C118.34 65 117.68 65 117 65 C117 64.34 117 63.68 117 63 C116.34 63 115.68 63 115 63 C115 62.34 115 61.68 115 61 C114.34 61 113.68 61 113 61 C113 60.34 113 59.68 113 59 C112.34 59 111.68 59 111 59 C111 58.34 111 57.68 111 57 C110.34 57 109.68 57 109 57 C109 56.34 109 55.68 109 55 C108.34 55 107.68 55 107 55 C107 54.34 107 53.68 107 53 C106.34 53 105.68 53 105 53 C105 52.34 105 51.68 105 51 C104.38125 50.855625 103.7625 50.71125 103.125 50.5625 C101 50 101 50 99 49 C99 48.34 99 47.68 99 47 C98.01 47 97.02 47 96 47 C96 46.34 96 45.68 96 45 C95.42765625 44.86722656 94.8553125 44.73445313 94.265625 44.59765625 C92.02349125 44.00619683 89.91420381 43.26711146 87.75 42.4375 C87.04359375 42.16808594 86.3371875 41.89867187 85.609375 41.62109375 C85.07828125 41.41613281 84.5471875 41.21117187 84 41 C84 40.34 84 39.68 84 39 C82.35 39 80.7 39 79 39 C79 38.34 79 37.68 79 37 C77.02 37 75.04 37 73 37 C73 36.34 73 35.68 73 35 C70.36 35 67.72 35 65 35 C65 34.34 65 33.68 65 33 C60.38 33 55.76 33 51 33 C51 32.34 51 31.68 51 31 C34.17 31 17.34 31 0 31 C0 20.77 0 10.54 0 0 Z " fill="#003D7F" transform="translate(293,82)"/>
<path d="M0 0 C10.89 0 21.78 0 33 0 C33 55.44 33 110.88 33 168 C51.15 168 69.3 168 88 168 C88 167.34 88 166.68 88 166 C90.64 166 93.28 166 96 166 C96 165.34 96 164.68 96 164 C97.32 164 98.64 164 100 164 C100 163.34 100 162.68 100 162 C100.99 162 101.98 162 103 162 C103 161.34 103 160.68 103 160 C104.32 160 105.64 160 107 160 C107 159.34 107 158.68 107 158 C107.66 158 108.32 158 109 158 C109 157.34 109 156.68 109 156 C109.66 156 110.32 156 111 156 C111 155.34 111 154.68 111 154 C111.66 154 112.32 154 113 154 C113.144375 153.38125 113.28875 152.7625 113.4375 152.125 C114 150 114 150 115 148 C115.66 148 116.32 148 117 148 C117.12375 147.319375 117.2475 146.63875 117.375 145.9375 C118 143 118 143 119 139.8125 C120.04587318 135.82510851 120.40669677 132.17387753 120.625 128.0625 C120.66367187 127.37865234 120.70234375 126.69480469 120.7421875 125.99023438 C120.83522412 124.32720487 120.91863787 122.66364153 121 121 C120.34 121 119.68 121 119 121 C119 118.69 119 116.38 119 114 C118.34 114 117.68 114 117 114 C117 112.68 117 111.36 117 110 C116.34 110 115.68 110 115 110 C114.34 108.02 113.68 106.04 113 104 C112.34 104 111.68 104 111 104 C111 103.34 111 102.68 111 102 C110.34 102 109.68 102 109 102 C109 101.34 109 100.68 109 100 C108.34 100 107.68 100 107 100 C107 99.34 107 98.68 107 98 C106.34 98 105.68 98 105 98 C105 97.34 105 96.68 105 96 C104.13375 95.71125 103.2675 95.4225 102.375 95.125 C99.25 94.08333333 96.125 93.04166667 93 92 C93 91.34 93 90.68 93 90 C78.48 90 63.96 90 49 90 C49 79.44 49 68.88 49 58 C51.26226435 56.86886782 52.50835348 56.86785309 55.01904297 56.85473633 C56.2607576 56.84516655 56.2607576 56.84516655 57.52755737 56.83540344 C58.42338531 56.83429062 59.31921326 56.8331778 60.2421875 56.83203125 C61.1621048 56.82870285 62.08202209 56.82537445 63.02981567 56.82194519 C64.97836812 56.8168768 66.92692925 56.81453684 68.87548828 56.81469727 C71.85594015 56.81251396 74.83602007 56.79436613 77.81640625 56.77539062 C79.70833207 56.77245606 81.60025964 56.77047168 83.4921875 56.76953125 C84.82985672 56.75875298 84.82985672 56.75875298 86.19454956 56.74775696 C87.44572067 56.7523719 87.44572067 56.7523719 88.72216797 56.75708008 C89.4533786 56.75565506 90.18458923 56.75423004 90.93795776 56.75276184 C93.32400666 57.03884829 94.89741984 57.86369056 97 59 C98.57187484 59.43477389 100.1441322 59.86823632 101.71875 60.29296875 C106.9112518 61.90228866 111.94459445 64.00824623 117 66 C117 66.66 117 67.32 117 68 C118.32 68 119.64 68 121 68 C121 68.66 121 69.32 121 70 C121.66 70 122.32 70 123 70 C123 70.66 123 71.32 123 72 C123.61875 72.144375 124.2375 72.28875 124.875 72.4375 C127 73 127 73 129 74 C129 74.66 129 75.32 129 76 C129.66 76 130.32 76 131 76 C131 76.66 131 77.32 131 78 C131.66 78 132.32 78 133 78 C136.66836714 81.54574763 139.42463335 85.62187669 142 90 C142.66 90.33 143.32 90.66 144 91 C144 91.99 144 92.98 144 94 C144.66 94.33 145.32 94.66 146 95 C146 96.32 146 97.64 146 99 C146.66 99 147.32 99 148 99 C148 100.65 148 102.3 148 104 C148.66 104 149.32 104 150 104 C150 106.31 150 108.62 150 111 C150.66 111 151.32 111 152 111 C152 114.96 152 118.92 152 123 C152.66 123 153.32 123 154 123 C154.02687279 124.81242052 154.04633715 126.62495233 154.0625 128.4375 C154.07410156 129.44683594 154.08570313 130.45617187 154.09765625 131.49609375 C154 134 154 134 153 135 C152.76572222 137.01594582 152.58663876 139.038474 152.4375 141.0625 C152.35371094 142.16722656 152.26992188 143.27195313 152.18359375 144.41015625 C152.12300781 145.26480469 152.06242188 146.11945313 152 147 C151.34 147 150.68 147 150 147 C150 148.98 150 150.96 150 153 C149.34 153 148.68 153 148 153 C148 154.65 148 156.3 148 158 C147.34 158 146.68 158 146 158 C146 159.32 146 160.64 146 162 C145.34 162 144.68 162 144 162 C144 163.32 144 164.64 144 166 C143.34 166.66 142.68 167.32 142 168 C141.505 168.70125 141.01 169.4025 140.5 170.125 C140.005 170.74375 139.51 171.3625 139 172 C138.34 172 137.68 172 137 172 C136.71125 172.598125 136.4225 173.19625 136.125 173.8125 C135 176 135 176 133 179 C132.34 179 131.68 179 131 179 C131 179.66 131 180.32 131 181 C129.34997172 182.35386936 127.6825613 183.68678142 126 185 C125.67 185.66 125.34 186.32 125 187 C124.01 187 123.02 187 122 187 C122 187.66 122 188.32 122 189 C121.01 189 120.02 189 119 189 C119 189.66 119 190.32 119 191 C117.68 191 116.36 191 115 191 C115 191.66 115 192.32 115 193 C113.48105765 193.62958174 111.95972805 194.25340464 110.4375 194.875 C109.59058594 195.22304688 108.74367188 195.57109375 107.87109375 195.9296875 C101.94017829 198.14066823 96.57946711 199.26382033 90.25 199.5625 C85.03198799 199.78668483 85.03198799 199.78668483 80 201 C78.52228915 201.09128131 77.04082946 201.12789732 75.56030273 201.12939453 C74.21892494 201.13412277 74.21892494 201.13412277 72.85044861 201.13894653 C71.88788651 201.1369223 70.9253244 201.13489807 69.93359375 201.1328125 C68.94375992 201.13376923 67.95392609 201.13472595 66.93409729 201.13571167 C64.84188778 201.13639219 62.74967616 201.13454683 60.6574707 201.13037109 C57.44672939 201.1250154 54.23612761 201.13032335 51.02539062 201.13671875 C48.99479136 201.13605806 46.96419218 201.13477708 44.93359375 201.1328125 C43.96900742 201.13483673 43.00442108 201.13686096 42.01060486 201.13894653 C41.11950516 201.13579437 40.22840546 201.13264221 39.31030273 201.12939453 C38.52437241 201.12859894 37.73844208 201.12780334 36.92869568 201.12698364 C35 201 35 201 33 200 C33 207.92 33 215.84 33 224 C22.11 224 11.22 224 0 224 C0 150.08 0 76.16 0 0 Z " fill="#EF781A" transform="translate(256,82)"/>
<path d="M0 0 C10.89 0 21.78 0 33 0 C33 13.2 33 26.4 33 40 C32.34 40 31.68 40 31 40 C30.67 40.99 30.34 41.98 30 43 C29.34 43 28.68 43 28 43 C28 43.66 28 44.32 28 45 C27.34 45 26.68 45 26 45 C26 45.66 26 46.32 26 47 C25.34 47 24.68 47 24 47 C24 47.66 24 48.32 24 49 C23.34 49 22.68 49 22 49 C22 49.66 22 50.32 22 51 C21.34 51 20.68 51 20 51 C20 51.66 20 52.32 20 53 C19.34 53 18.68 53 18 53 C18 53.66 18 54.32 18 55 C17.34 55 16.68 55 16 55 C16 55.66 16 56.32 16 57 C15.34 57 14.68 57 14 57 C14 57.66 14 58.32 14 59 C13.34 59 12.68 59 12 59 C12 59.66 12 60.32 12 61 C11.34 61 10.68 61 10 61 C10 61.66 10 62.32 10 63 C9.34 63 8.68 63 8 63 C8 63.66 8 64.32 8 65 C7.34 65 6.68 65 6 65 C6 65.66 6 66.32 6 67 C5.34 67 4.68 67 4 67 C3.67 67.99 3.34 68.98 3 70 C2.01 69.67 1.02 69.34 0 69 C0 46.23 0 23.46 0 0 Z " fill="#F1791A" transform="translate(256,343)"/>
<path d="M0 0 C10.89 0 21.78 0 33 0 C33 10.89 33 21.78 33 33 C22.11 33 11.22 33 0 33 C0 22.11 0 11.22 0 0 Z " fill="#F37A1B" transform="translate(102,86)"/>
<path d="M0 0 C10.89 0 21.78 0 33 0 C33 10.56 33 21.12 33 32 C29.74052722 33.08649093 27.33489025 33.12928509 23.90625 33.1328125 C22.71128906 33.13410156 21.51632813 33.13539063 20.28515625 33.13671875 C19.03605469 33.13285156 17.78695312 33.12898438 16.5 33.125 C15.25089844 33.12886719 14.00179687 33.13273437 12.71484375 33.13671875 C10.92240234 33.13478516 10.92240234 33.13478516 9.09375 33.1328125 C7.44922852 33.13112061 7.44922852 33.13112061 5.77148438 33.12939453 C3 33 3 33 0 32 C0 21.44 0 10.88 0 0 Z " fill="#003D7E" transform="translate(102,187)"/>
<path d="M0 0 C10.23 0 20.46 0 31 0 C31 10.89 31 21.78 31 33 C20.77 33 10.54 33 0 33 C0 22.11 0 11.22 0 0 Z " fill="#003E81" transform="translate(92,131)"/>
<path d="M0 0 C10.23 0 20.46 0 31 0 C31 10.89 31 21.78 31 33 C20.77 33 10.54 33 0 33 C0 22.11 0 11.22 0 0 Z " fill="#003E80" transform="translate(57,88)"/>
<path d="M0 0 C1.73431274 0.00616333 1.73431274 0.00616333 3.50366211 0.01245117 C4.75598633 0.01438477 6.00831055 0.01631836 7.29858398 0.01831055 C9.26988281 0.03667969 9.26988281 0.03667969 11.28100586 0.05541992 C12.59907227 0.05606445 13.91713867 0.05670898 15.27514648 0.05737305 C25.07841463 0.1028287 25.07841463 0.1028287 26.21850586 1.24291992 C26.30690256 3.61860512 26.33380891 5.96500666 26.31616211 8.34057617 C26.31474716 9.04943466 26.31333221 9.75829315 26.31187439 10.4886322 C26.30626029 12.76093705 26.29370549 15.03314468 26.28100586 17.30541992 C26.27599267 18.84252788 26.27142945 20.37963737 26.26733398 21.91674805 C26.25713556 25.69220659 26.23756317 29.46745397 26.21850586 33.24291992 C15.98850586 33.24291992 5.75850586 33.24291992 -4.78149414 33.24291992 C-4.84336914 25.63229492 -4.84336914 25.63229492 -4.90649414 17.86791992 C-4.92470215 16.26770996 -4.94291016 14.6675 -4.96166992 13.01879883 C-4.96666504 11.76502441 -4.97166016 10.51125 -4.97680664 9.21948242 C-4.99251709 7.28709717 -4.99251709 7.28709717 -5.00854492 5.31567383 C-4.71144096 1.2948669 -4.05381264 0.354037 0 0 Z " fill="#F27A1B" transform="translate(153.781494140625,208.757080078125)"/>
<path d="M0 0 C1.20269531 -0.00128906 2.40539062 -0.00257812 3.64453125 -0.00390625 C4.90652344 -0.00003906 6.16851562 0.00382812 7.46875 0.0078125 C9.36173828 0.00201172 9.36173828 0.00201172 11.29296875 -0.00390625 C12.49566406 -0.00261719 13.69835937 -0.00132813 14.9375 0 C16.04544922 0.00112793 17.15339844 0.00225586 18.29492188 0.00341797 C20.96875 0.1328125 20.96875 0.1328125 22.96875 1.1328125 C22.96875 11.6928125 22.96875 22.2528125 22.96875 33.1328125 C12.73875 33.1328125 2.50875 33.1328125 -8.03125 33.1328125 C-8.03125 22.5728125 -8.03125 12.0128125 -8.03125 1.1328125 C-5.28600448 -0.23981026 -3.06905705 0.0031244 0 0 Z " fill="#003D7E" transform="translate(157.03125,60.8671875)"/>
<path d="M0 0 C9.9 0 19.8 0 30 0 C30.02291161 4.53904366 30.04283781 9.07788802 30.05493164 13.61694336 C30.0599714 15.16219766 30.0668032 16.70744716 30.07543945 18.25268555 C30.08752076 20.46925029 30.09323173 22.68575218 30.09765625 24.90234375 C30.10281754 25.5971434 30.10797882 26.29194305 30.11329651 27.00779724 C30.11349277 28.6722933 30.06189129 30.33665499 30 32 C29 33 29 33 26.22436523 33.11352539 C25.01466064 33.10828857 23.80495605 33.10305176 22.55859375 33.09765625 C21.38353271 33.09515869 20.20847168 33.09266113 18.99780273 33.09008789 C17.49290283 33.08098389 15.98800293 33.07187988 14.4375 33.0625 C9.673125 33.041875 4.90875 33.02125 0 33 C0 22.11 0 11.22 0 0 Z " fill="#F0791A" transform="translate(50,150)"/>
<path d="M0 0 C10.23 0 20.46 0 31 0 C31 10.23 31 20.46 31 31 C20.77 31 10.54 31 0 31 C0 20.77 0 10.54 0 0 Z " fill="#003C7D" transform="translate(149,164)"/>
<path d="M0 0 C10.23 0 20.46 0 31 0 C31 10.23 31 20.46 31 31 C26.070625 31.020625 21.14125 31.04125 16.0625 31.0625 C13.7268396 31.07615601 13.7268396 31.07615601 11.34399414 31.09008789 C9.52049438 31.09383423 9.52049438 31.09383423 7.66015625 31.09765625 C6.40855713 31.10289307 5.15695801 31.10812988 3.86743164 31.11352539 C1 31 1 31 0 30 C-0.08783542 27.78144736 -0.10694609 25.56011504 -0.09765625 23.33984375 C-0.09515869 22.12417725 -0.09266113 20.90851074 -0.09008789 19.65600586 C-0.08098389 18.09889893 -0.07187988 16.54179199 -0.0625 14.9375 C-0.041875 10.008125 -0.02125 5.07875 0 0 Z " fill="#F27A1B" transform="translate(149,111)"/>
<path d="M0 0 C10.23 0 20.46 0 31 0 C31.020625 4.929375 31.04125 9.85875 31.0625 14.9375 C31.071604 16.49460693 31.08070801 18.05171387 31.09008789 19.65600586 C31.09258545 20.87167236 31.09508301 22.08733887 31.09765625 23.33984375 C31.10551147 25.21724243 31.10551147 25.21724243 31.11352539 27.13256836 C31 30 31 30 30 31 C27.78144736 31.08783542 25.56011504 31.10694609 23.33984375 31.09765625 C22.12417725 31.09515869 20.90851074 31.09266113 19.65600586 31.09008789 C18.09889893 31.08098389 16.54179199 31.07187988 14.9375 31.0625 C10.008125 31.041875 5.07875 31.02125 0 31 C0 20.77 0 10.54 0 0 Z " fill="#EB761A" transform="translate(199,82)"/>
<path d="M0 0 C10.23 0 20.46 0 31 0 C31 9.9 31 19.8 31 30 C20.77 30 10.54 30 0 30 C0 20.1 0 10.2 0 0 Z " fill="#F47B1B" transform="translate(92,44)"/>
<path d="M0 0 C4.2358357 -0.02469321 8.47163342 -0.04285671 12.70751953 -0.05493164 C14.1489332 -0.05996474 15.59034176 -0.06679173 17.03173828 -0.07543945 C19.10190085 -0.08754983 21.17199601 -0.09323847 23.2421875 -0.09765625 C24.4885498 -0.10289307 25.73491211 -0.10812988 27.01904297 -0.11352539 C30 0 30 0 32 1 C32.02333342 22.60916826 32.04098136 44.21833445 32.05181217 65.82751274 C32.05697418 75.86043595 32.06401509 85.89335134 32.07543945 95.92626953 C32.08538917 104.66829722 32.09185412 113.41031926 32.09408849 122.15235245 C32.09539511 126.78358099 32.09847788 131.41479333 32.10573006 136.04601669 C32.1124948 140.40106553 32.11461603 144.75609143 32.11310768 149.11114502 C32.1133838 150.71318817 32.11538624 152.31523204 32.11920547 153.91727066 C32.1241498 156.09737204 32.12299553 158.27738579 32.12025452 160.45748901 C32.12117631 161.67978651 32.1220981 162.90208401 32.12304783 164.16142082 C32 167 32 167 31 169 C67.63 169 104.26 169 142 169 C141.34 169.99 140.68 170.98 140 172 C138.05161095 172.36914349 138.05161095 172.36914349 135.62142944 172.36076355 C134.70153732 172.36488754 133.7816452 172.36901154 132.83387756 172.3732605 C131.82183762 172.36247467 130.80979767 172.35168884 129.76708984 172.34057617 C128.17194298 172.34123329 128.17194298 172.34123329 126.54457092 172.34190369 C123.01650873 172.33980746 119.48891705 172.31643672 115.9609375 172.29296875 C113.51999166 172.28737577 111.07904245 172.28310427 108.63809204 172.28010559 C102.20343785 172.26863339 95.76898577 172.23914565 89.33441162 172.20599365 C82.77244806 172.17534398 76.21045195 172.16161117 69.6484375 172.14648438 C56.76553861 172.11427834 43.88278004 172.0636273 31 172 C31 171.34 31 170.68 31 170 C30.34 170 29.68 170 29 170 C29 114.23 29 58.46 29 1 C19.43 1.33 9.86 1.66 0 2 C0 1.34 0 0.68 0 0 Z " fill="#002550" transform="translate(199,139)"/>
<path d="M0 0 C0.66 0 1.32 0 2 0 C2 72.93 2 145.86 2 221 C11.57 221 21.14 221 31 221 C31 213.74 31 206.48 31 199 C48.16 199 65.32 199 83 199 C79.85565525 201.09622984 79.14044489 201.24940473 75.56030273 201.24291992 C74.66605087 201.24599655 73.77179901 201.24907318 72.85044861 201.25224304 C71.88788651 201.24505753 70.9253244 201.23787201 69.93359375 201.23046875 C68.94375992 201.23001053 67.95392609 201.22955231 66.93409729 201.2290802 C64.84187623 201.2260591 62.7496574 201.21817705 60.6574707 201.20581055 C57.44669674 201.1875523 54.23621109 201.18530089 51.02539062 201.18554688 C48.99478916 201.18063172 46.96418966 201.17480341 44.93359375 201.16796875 C43.48671425 201.16629951 43.48671425 201.16629951 42.01060486 201.16459656 C41.11950516 201.15821671 40.22840546 201.15183685 39.31030273 201.14526367 C38.52437241 201.14145187 37.73844208 201.13764008 36.92869568 201.13371277 C35 201 35 201 33 200 C33 207.92 33 215.84 33 224 C22.11 224 11.22 224 0 224 C0 150.08 0 76.16 0 0 Z " fill="#AD5612" transform="translate(256,82)"/>
<path d="M0 0 C40.59 0 81.18 0 123 0 C119.7053685 3.2946315 119.47932534 3.37577404 115.15950012 3.39872742 C114.16250595 3.41126556 113.16551178 3.42380371 112.13830566 3.4367218 C110.49940369 3.43456917 110.49940369 3.43456917 108.82739258 3.43237305 C107.67603317 3.4425647 106.52467377 3.45275635 105.33842468 3.46325684 C101.52374482 3.4935084 97.70931556 3.50267158 93.89453125 3.51171875 C91.2532212 3.52855637 88.61191922 3.54670535 85.97062683 3.56611633 C79.72337685 3.60981107 73.47615303 3.63833965 67.22879666 3.66143972 C59.4187224 3.69112728 51.6087943 3.74102277 43.79882812 3.79101562 C29.8659296 3.88011297 15.93310927 3.93860201 2 4 C2 36.34 2 68.68 2 102 C1.01 102.495 1.01 102.495 0 103 C0 69.01 0 35.02 0 0 Z " fill="#000C25" transform="translate(229,338)"/>
<path d="M0 0 C0.99 0 1.98 0 3 0 C3 55.77 3 111.54 3 169 C2.01 169 1.02 169 0 169 C0 113.23 0 57.46 0 0 Z " fill="#88440E" transform="translate(286,82)"/>
<path d="M0 0 C10.89 0 21.78 0 33 0 C33 10.89 33 21.78 33 33 C22.11 33 11.22 33 0 33 C0 22.11 0 11.22 0 0 Z M4 3 C4 11.91 4 20.82 4 30 C12.58 30 21.16 30 30 30 C30 21.09 30 12.18 30 3 C21.42 3 12.84 3 4 3 Z " fill="#C66316" transform="translate(102,86)"/>
<path d="M0 0 C10.89 0 21.78 0 33 0 C33 10.56 33 21.12 33 32 C29.74052722 33.08649093 27.33489025 33.12928509 23.90625 33.1328125 C22.71128906 33.13410156 21.51632813 33.13539063 20.28515625 33.13671875 C19.03605469 33.13285156 17.78695312 33.12898438 16.5 33.125 C15.25089844 33.12886719 14.00179687 33.13273437 12.71484375 33.13671875 C10.92240234 33.13478516 10.92240234 33.13478516 9.09375 33.1328125 C7.44922852 33.13112061 7.44922852 33.13112061 5.77148438 33.12939453 C3 33 3 33 0 32 C0 21.44 0 10.88 0 0 Z M3 2 C3 11.24 3 20.48 3 30 C12.24 30 21.48 30 31 30 C31 20.76 31 11.52 31 2 C21.76 2 12.52 2 3 2 Z " fill="#001733" transform="translate(102,187)"/>
<path d="M0 0 C10.23 0 20.46 0 31 0 C31 1.32 31 2.64 31 4 C21.1 4 11.2 4 1 4 C1 12.58 1 21.16 1 30 C10.9 30 20.8 30 31 30 C31 30.99 31 31.98 31 33 C20.77 33 10.54 33 0 33 C0 22.11 0 11.22 0 0 Z " fill="#002C5B" transform="translate(92,131)"/>
<path d="M0 0 C0.99 0 1.98 0 3 0 C3.33 22.77 3.66 45.54 4 69 C2.68 69 1.36 69 0 69 C0 46.23 0 23.46 0 0 Z " fill="#B35813" transform="translate(256,343)"/>
<path d="M0 0 C17.16 0 34.32 0 52 0 C48.85565525 2.09622984 48.14044489 2.24940473 44.56030273 2.24291992 C43.66605087 2.24599655 42.77179901 2.24907318 41.85044861 2.25224304 C40.88788651 2.24505753 39.9253244 2.23787201 38.93359375 2.23046875 C37.94375992 2.23001053 36.95392609 2.22955231 35.93409729 2.2290802 C33.84187623 2.2260591 31.7496574 2.21817705 29.6574707 2.20581055 C26.44669674 2.1875523 23.23621109 2.18530089 20.02539062 2.18554688 C17.99478916 2.18063172 15.96418966 2.17480341 13.93359375 2.16796875 C12.48671425 2.16629951 12.48671425 2.16629951 11.01060486 2.16459656 C10.11950516 2.15821671 9.22840546 2.15183685 8.31030273 2.14526367 C7.52437241 2.14145187 6.73844208 2.13764008 5.92869568 2.13371277 C4 2 4 2 2 1 C2 8.92 2 16.84 2 25 C-8.89 25 -19.78 25 -31 25 C-30.67 24.34 -30.34 23.68 -30 23 C-20.43 22.67 -10.86 22.34 -1 22 C-0.67 14.74 -0.34 7.48 0 0 Z " fill="#3A1F04" transform="translate(287,281)"/>
<path d="M0 0 C1.16257324 0.01047363 2.32514648 0.02094727 3.52294922 0.03173828 C5.40820312 0.04140625 5.40820312 0.04140625 7.33154297 0.05126953 C9.30960938 0.07640625 9.30960938 0.07640625 11.32763672 0.10205078 C12.66747393 0.11208096 14.00731823 0.12120674 15.34716797 0.12939453 C18.63250244 0.15303003 21.91748137 0.18597844 25.20263672 0.22705078 C25.53263672 1.54705078 25.86263672 2.86705078 26.20263672 4.22705078 C16.63263672 4.22705078 7.06263672 4.22705078 -2.79736328 4.22705078 C-2.79736328 13.79705078 -2.79736328 23.36705078 -2.79736328 33.22705078 C-3.45736328 33.22705078 -4.11736328 33.22705078 -4.79736328 33.22705078 C-4.84674477 28.84881161 -4.88307368 24.47071932 -4.90722656 20.09228516 C-4.91729371 18.60234758 -4.93094846 17.11242981 -4.94824219 15.62255859 C-4.97245981 13.4828605 -4.98383892 11.34342325 -4.99267578 9.20361328 C-5.00838623 7.27122803 -5.00838623 7.27122803 -5.02441406 5.29980469 C-4.72652858 1.26842121 -4.06704219 0.33010554 0 0 Z " fill="#6E370A" transform="translate(153.79736328125,208.77294921875)"/>
<path d="M0 0 C7.6358175 0.06687059 15.27111775 0.15662575 22.90649414 0.26245117 C25.50506443 0.29574743 28.10370787 0.32376454 30.70239258 0.34643555 C34.43342319 0.37989451 38.16378061 0.43220729 41.89453125 0.48828125 C43.64308159 0.49786613 43.64308159 0.49786613 45.42695618 0.50764465 C46.50785019 0.52743881 47.5887442 0.54723297 48.70239258 0.56762695 C49.65503494 0.57873001 50.60767731 0.58983307 51.58918762 0.60127258 C54 1 54 1 57 4 C37.2 4 17.4 4 -3 4 C-2.01 3.01 -1.02 2.02 0 1 C0 0.67 0 0.34 0 0 Z " fill="#F87E1C" transform="translate(289,250)"/>
<path d="M0 0 C0.99 0.33 1.98 0.66 3 1 C3.33 10.24 3.66 19.48 4 29 C15.22 29.33 26.44 29.66 38 30 C38 30.66 38 31.32 38 32 C25.46 32 12.92 32 0 32 C0 21.44 0 10.88 0 0 Z " fill="#AE5915" transform="translate(305,140)"/>
<path d="M0 0 C10.23 0 20.46 0 31 0 C31 0.33 31 0.66 31 1 C21.43 1 11.86 1 2 1 C2.33 1.66 2.66 2.32 3 3 C3.09655452 4.77787843 3.13075463 6.55934656 3.1328125 8.33984375 C3.13410156 9.40267578 3.13539063 10.46550781 3.13671875 11.56054688 C3.13285156 12.67494141 3.12898437 13.78933594 3.125 14.9375 C3.12886719 16.04802734 3.13273438 17.15855469 3.13671875 18.30273438 C3.13542969 19.36685547 3.13414062 20.43097656 3.1328125 21.52734375 C3.13168457 22.50437256 3.13055664 23.48140137 3.12939453 24.48803711 C3 27 3 27 2 30 C11.57 30 21.14 30 31 30 C31 30.33 31 30.66 31 31 C26.74585377 31.02465622 22.49174502 31.04283899 18.23754883 31.05493164 C16.78929927 31.05997101 15.34105483 31.06680253 13.89282227 31.07543945 C11.81525412 31.08752247 9.73775303 31.09323211 7.66015625 31.09765625 C6.40855713 31.10289307 5.15695801 31.10812988 3.86743164 31.11352539 C1 31 1 31 0 30 C-0.08783542 27.78144736 -0.10694609 25.56011504 -0.09765625 23.33984375 C-0.09515869 22.12417725 -0.09266113 20.90851074 -0.09008789 19.65600586 C-0.08098389 18.09889893 -0.07187988 16.54179199 -0.0625 14.9375 C-0.041875 10.008125 -0.02125 5.07875 0 0 Z " fill="#A85C0E" transform="translate(149,111)"/>
<path d="M0 0 C10.23 0 20.46 0 31 0 C31 10.89 31 21.78 31 33 C30.67 33 30.34 33 30 33 C30 23.43 30 13.86 30 4 C15.15 3.505 15.15 3.505 0 3 C0 2.01 0 1.02 0 0 Z " fill="#00152C" transform="translate(57,88)"/>
<path d="M0 0 C0.99 0 1.98 0 3 0 C3 13.2 3 26.4 3 40 C2.01 40 1.02 40 0 40 C0 26.8 0 13.6 0 0 Z " fill="#88440E" transform="translate(286,343)"/>
<path d="M0 0 C1.20269531 -0.00128906 2.40539062 -0.00257812 3.64453125 -0.00390625 C4.90652344 -0.00003906 6.16851562 0.00382812 7.46875 0.0078125 C9.36173828 0.00201172 9.36173828 0.00201172 11.29296875 -0.00390625 C12.49566406 -0.00261719 13.69835937 -0.00132813 14.9375 0 C16.04544922 0.00112793 17.15339844 0.00225586 18.29492188 0.00341797 C20.96875 0.1328125 20.96875 0.1328125 22.96875 1.1328125 C22.96875 1.7928125 22.96875 2.4528125 22.96875 3.1328125 C13.06875 3.1328125 3.16875 3.1328125 -7.03125 3.1328125 C-7.03125 13.0328125 -7.03125 22.9328125 -7.03125 33.1328125 C-7.36125 33.1328125 -7.69125 33.1328125 -8.03125 33.1328125 C-8.03125 22.5728125 -8.03125 12.0128125 -8.03125 1.1328125 C-5.28600448 -0.23981026 -3.06905705 0.0031244 0 0 Z " fill="#000914" transform="translate(157.03125,60.8671875)"/>
<path d="M0 0 C9.9 0 19.8 0 30 0 C30 9.9 30 19.8 30 30 C29.34 30 28.68 30 28 30 C28 20.76 28 11.52 28 2 C18.76 2 9.52 2 0 2 C0 1.34 0 0.68 0 0 Z " fill="#002957" transform="translate(105,187)"/>
<path d="M0 0 C0.66 0 1.32 0 2 0 C2 9.24 2 18.48 2 28 C10.46668056 27.92088228 10.46668056 27.92088228 18.93310547 27.81982422 C19.98385254 27.8148291 21.03459961 27.80983398 22.1171875 27.8046875 C23.19597168 27.79421387 24.27475586 27.78374023 25.38623047 27.77294922 C28 28 28 28 30 30 C20.1 30 10.2 30 0 30 C0 20.1 0 10.2 0 0 Z " fill="#E67518" transform="translate(92,44)"/>
<path d="M0 0 C0.66 0 1.32 0 2 0 C2 8.58 2 17.16 2 26 C-7.24 26 -16.48 26 -26 26 C-26 25.34 -26 24.68 -26 24 C-17.42 24 -8.84 24 0 24 C0 16.08 0 8.16 0 0 Z " fill="#FA7E1B" transform="translate(76,153)"/>
<path d="M0 0 C0.33 0 0.66 0 1 0 C1.33 13.86 1.66 27.72 2 42 C0.515 42.495 0.515 42.495 -1 43 C-1 43.66 -1 44.32 -1 45 C-1.66 45 -2.32 45 -3 45 C-3 45.66 -3 46.32 -3 47 C-3.66 47 -4.32 47 -5 47 C-5 47.66 -5 48.32 -5 49 C-5.66 49 -6.32 49 -7 49 C-7 49.66 -7 50.32 -7 51 C-7.66 51 -8.32 51 -9 51 C-9 51.66 -9 52.32 -9 53 C-9.66 53 -10.32 53 -11 53 C-11 53.66 -11 54.32 -11 55 C-11.66 55 -12.32 55 -13 55 C-13 55.66 -13 56.32 -13 57 C-13.66 57 -14.32 57 -15 57 C-15 57.66 -15 58.32 -15 59 C-15.66 59 -16.32 59 -17 59 C-17 59.66 -17 60.32 -17 61 C-17.66 61 -18.32 61 -19 61 C-19 61.66 -19 62.32 -19 63 C-19.66 63 -20.32 63 -21 63 C-21 63.66 -21 64.32 -21 65 C-21.66 65 -22.32 65 -23 65 C-21.49287699 61.44961928 -19.42833908 59.20886613 -16.68359375 56.5234375 C-15.83732422 55.688125 -14.99105469 54.8528125 -14.11914062 53.9921875 C-13.23419922 53.12851562 -12.34925781 52.26484375 -11.4375 51.375 C-9.68402618 49.65585815 -7.93261425 47.93460987 -6.18359375 46.2109375 C-5.40556396 45.45087402 -4.62753418 44.69081055 -3.82592773 43.90771484 C-0.17951157 40.0979681 -0.78032492 36.05911932 -0.68359375 31.0546875 C-0.66281265 30.1696756 -0.64203156 29.2846637 -0.62062073 28.37283325 C-0.55513402 25.54030259 -0.49624438 22.70767775 -0.4375 19.875 C-0.39431394 17.95702143 -0.35069963 16.03905246 -0.30664062 14.12109375 C-0.19945353 9.41415949 -0.0981836 4.70713033 0 0 Z " fill="#DE6F18" transform="translate(285,343)"/>
<path d="M0 0 C0.99 0 1.98 0 3 0 C3 10.89 3 21.78 3 33 C2.01 33 1.02 33 0 33 C0 22.11 0 11.22 0 0 Z " fill="#904412" transform="translate(102,86)"/>
<path d="M0 0 C0.66 0.33 1.32 0.66 2 1 C2 9.58 2 18.16 2 27 C1.34 27.33 0.68 27.66 0 28 C-2.37086778 18.9610666 -2.79988874 10.19943133 -1 1 C-0.67 0.67 -0.34 0.34 0 0 Z " fill="#002955" transform="translate(465,197)"/>
<path d="M0 0 C9.9 0 19.8 0 30 0 C29.67 0.99 29.34 1.98 29 3 C19.43 3 9.86 3 0 3 C0 2.01 0 1.02 0 0 Z " fill="#952109" transform="translate(50,180)"/>
<path d="M0 0 C8.91 0 17.82 0 27 0 C27 0.66 27 1.32 27 2 C18.75 2 10.5 2 2 2 C2 10.25 2 18.5 2 27 C1.67 27 1.34 27 1 27 C0.67 18.09 0.34 9.18 0 0 Z " fill="#FC801C" transform="translate(151,213)"/>
<path d="M0 0 C8.91 0 17.82 0 27 0 C27 0.33 27 0.66 27 1 C18.75 1 10.5 1 2 1 C2 8.92 2 16.84 2 25 C10.25 25 18.5 25 27 25 C27 25.33 27 25.66 27 26 C18.42 26.33 9.84 26.66 1 27 C-0.3308911 24.33821779 -0.11268993 22.31260604 -0.09765625 19.3359375 C-0.09515869 18.3257959 -0.09266113 17.3156543 -0.09008789 16.27490234 C-0.08098389 14.98793457 -0.07187988 13.7009668 -0.0625 12.375 C-0.041875 8.29125 -0.02125 4.2075 0 0 Z " fill="#FF821D" transform="translate(151,113)"/>
<path d="M0 0 C0.99 0 1.98 0 3 0 C2.15769529 7.15959005 -2.40681384 11.70331703 -7.5625 16.375 C-8.98755859 17.68597656 -8.98755859 17.68597656 -10.44140625 19.0234375 C-13 21 -13 21 -16 21 C-16 21.66 -16 22.32 -16 23 C-17.32 23.33 -18.64 23.66 -20 24 C-19.67 23.34 -19.34 22.68 -19 22 C-18.34 22 -17.68 22 -17 22 C-17 21.34 -17 20.68 -17 20 C-16.01 20 -15.02 20 -14 20 C-14 19.34 -14 18.68 -14 18 C-13.34 18 -12.68 18 -12 18 C-12 17.34 -12 16.68 -12 16 C-11.34 16 -10.68 16 -10 16 C-10 15.34 -10 14.68 -10 14 C-9.34 14 -8.68 14 -8 14 C-8 13.34 -8 12.68 -8 12 C-7.34 12 -6.68 12 -6 12 C-5.855625 11.38125 -5.71125 10.7625 -5.5625 10.125 C-5 8 -5 8 -4 6 C-3.34 6 -2.68 6 -2 6 C-2 5.34 -2 4.68 -2 4 C-1.34 4 -0.68 4 0 4 C0 2.68 0 1.36 0 0 Z " fill="#002A57" transform="translate(418,263)"/>
<path d="M0 0 C19.14 0 38.28 0 58 0 C58 0.99 58 1.98 58 3 C55.69 3 53.38 3 51 3 C51 2.34 51 1.68 51 1 C34.17 1 17.34 1 0 1 C0 0.67 0 0.34 0 0 Z " fill="#002550" transform="translate(293,112)"/>
<path d="M0 0 C0.99 0 1.98 0 3 0 C3 0.99 3 1.98 3 3 C-15.48 3 -33.96 3 -53 3 C-53 2.67 -53 2.34 -53 2 C-35.51 2 -18.02 2 0 2 C0 1.34 0 0.68 0 0 Z " fill="#D57313" transform="translate(344,248)"/>
<path d="M0 0 C2.475 0.99 2.475 0.99 5 2 C5 2.66 5 3.32 5 4 C5.66 4 6.32 4 7 4 C7 4.66 7 5.32 7 6 C7.66 6 8.32 6 9 6 C9 6.66 9 7.32 9 8 C9.66 8 10.32 8 11 8 C11 8.66 11 9.32 11 10 C11.66 10 12.32 10 13 10 C18 15.47619048 18 15.47619048 18 18 C18.66 18.33 19.32 18.66 20 19 C19.01 19 18.02 19 17 19 C17 18.34 17 17.68 17 17 C16.34 17 15.68 17 15 17 C15 16.34 15 15.68 15 15 C14.34 15 13.68 15 13 15 C13 14.34 13 13.68 13 13 C12.34 13 11.68 13 11 13 C11 12.34 11 11.68 11 11 C10.01 11 9.02 11 8 11 C8 10.34 8 9.68 8 9 C7.34 9 6.68 9 6 9 C3.875 7.125 3.875 7.125 2 5 C2 4.34 2 3.68 2 3 C1.34 3 0.68 3 0 3 C0 2.01 0 1.02 0 0 Z " fill="#002C5B" transform="translate(419,111)"/>
<path d="M0 0 C1.32 0.33 2.64 0.66 4 1 C4.05429959 2.74965358 4.09292823 4.49979787 4.125 6.25 C4.14820313 7.22453125 4.17140625 8.1990625 4.1953125 9.203125 C3.99862781 12.0196498 3.44568916 13.60949036 2 16 C1.34 16 0.68 16 0 16 C0 10.72 0 5.44 0 0 Z " fill="#6F380C" transform="translate(406,204)"/>
<path d="M0 0 C0.99 0 1.98 0 3 0 C4.2039337 3.75399798 4.09877617 7.33217412 4.0625 11.25 C4.05347656 12.51328125 4.04445313 13.7765625 4.03515625 15.078125 C4.02355469 16.04234375 4.01195312 17.0065625 4 18 C3.67 16.68 3.34 15.36 3 14 C2.34 14 1.68 14 1 14 C1 10.7 1 7.4 1 4 C0.34 4 -0.32 4 -1 4 C-0.67 2.68 -0.34 1.36 0 0 Z " fill="#002856" transform="translate(431,181)"/>
<path d="M0 0 C0.99 0.33 1.98 0.66 3 1 C3 3.64 3 6.28 3 9 C3.66 9 4.32 9 5 9 C5 10.98 5 12.96 5 15 C4.01 15 3.02 15 2 15 C1.66048381 13.43883181 1.32867456 11.87598662 1 10.3125 C0.814375 9.44238281 0.62875 8.57226562 0.4375 7.67578125 C0.01027953 5.06287036 -0.07616201 2.64186962 0 0 Z " fill="#002D5E" transform="translate(460,175)"/>
<path d="M0 0 C1.29230145 3.87690436 0.54078349 5.25809723 -1 9 C-2.28072371 11.0340906 -3.60287726 13.04402816 -5 15 C-5.66 14.67 -6.32 14.34 -7 14 C-6.67 12.68 -6.34 11.36 -6 10 C-5.34 10 -4.68 10 -4 10 C-4 8.68 -4 7.36 -4 6 C-3.34 6 -2.68 6 -2 6 C-2 4.35 -2 2.7 -2 1 C-1.34 0.67 -0.68 0.34 0 0 Z " fill="#003064" transform="translate(428,247)"/>
<path d="M0 0 C0.33 0.99 0.66 1.98 1 3 C-1.94801898 4.80156715 -4.89025529 6.49528482 -8 8 C-8.7425 8.37125 -9.485 8.7425 -10.25 9.125 C-10.8275 9.41375 -11.405 9.7025 -12 10 C-12 8.68 -12 7.36 -12 6 C-10.68 6 -9.36 6 -8 6 C-8 5.34 -8 4.68 -8 4 C-6.68 4 -5.36 4 -4 4 C-4 3.34 -4 2.68 -4 2 C-2.68 1.34 -1.36 0.68 0 0 Z " fill="#002D5E" transform="translate(387,294)"/>
<path d="M0 0 C0.99 0 1.98 0 3 0 C2.84660156 0.76570312 2.69320312 1.53140625 2.53515625 2.3203125 C1.8304832 7.16558268 1.63953203 11.98648739 1.4375 16.875 C1.39431641 17.84953125 1.35113281 18.8240625 1.30664062 19.828125 C1.20117726 22.21862802 1.09905825 24.60922444 1 27 C0.67 27 0.34 27 0 27 C0 18.09 0 9.18 0 0 Z " fill="#001F3D" transform="translate(102,187)"/>
<path d="M0 0 C0.66 0 1.32 0 2 0 C2 4.29 2 8.58 2 13 C1.01 13.495 1.01 13.495 0 14 C-1.33224462 10.00326615 -1.13442113 6.16705497 -1 2 C-0.67 1.34 -0.34 0.68 0 0 Z " fill="#002853" transform="translate(435,204)"/>
<path d="M0 0 C0.99 0 1.98 0 3 0 C3 0.99 3 1.98 3 3 C2.01 3 1.02 3 0 3 C0 3.66 0 4.32 0 5 C-0.99 5 -1.98 5 -3 5 C-3 5.66 -3 6.32 -3 7 C-6 9 -6 9 -9 9 C-9.33 9.66 -9.66 10.32 -10 11 C-10 10.01 -10 9.02 -10 8 C-9.34 8 -8.68 8 -8 8 C-8 7.34 -8 6.68 -8 6 C-6.20963542 5.0234375 -4.41927083 4.046875 -2.62890625 3.0703125 C-0.83381685 2.08589976 -0.83381685 2.08589976 0 0 Z " fill="#002854" transform="translate(417,309)"/>
<path d="M0 0 C2.5 1.8125 2.5 1.8125 5 4 C5 4.99 5 5.98 5 7 C5.66 7 6.32 7 7 7 C7 7.99 7 8.98 7 10 C7.66 10 8.32 10 9 10 C9 10.66 9 11.32 9 12 C7.68 11.67 6.36 11.34 5 11 C4.67 9.35 4.34 7.7 4 6 C3.01 5.67 2.02 5.34 1 5 C0.67 3.35 0.34 1.7 0 0 Z " fill="#002C5D" transform="translate(440,133)"/>
<path d="M0 0 C0.99 0.33 1.98 0.66 3 1 C3 2.32 3 3.64 3 5 C3.66 5 4.32 5 5 5 C5 5.99 5 6.98 5 8 C3.68 8 2.36 8 1 8 C-0.42944945 5.64561267 -1.08661261 4.51967567 -0.625 1.75 C-0.41875 1.1725 -0.2125 0.595 0 0 Z " fill="#B75B11" transform="translate(399,176)"/>
<path d="M0 0 C-3.85477249 2.56984833 -7.52040582 3.85814266 -12 5 C-12 4.01 -12 3.02 -12 2 C-10.56656 1.46809459 -9.12804633 0.94984742 -7.6875 0.4375 C-6.48673828 0.00244141 -6.48673828 0.00244141 -5.26171875 -0.44140625 C-3 -1 -3 -1 0 0 Z " fill="#003061" transform="translate(394,327)"/>
<path d="M0 0 C2.97 0.495 2.97 0.495 6 1 C6 1.66 6 2.32 6 3 C6.66 3 7.32 3 8 3 C7.67 3.99 7.34 4.98 7 6 C6.01 6 5.02 6 4 6 C4 5.34 4 4.68 4 4 C3.34 4 2.68 4 2 4 C2 3.34 2 2.68 2 2 C1.34 2 0.68 2 0 2 C0 1.34 0 0.68 0 0 Z " fill="#A55214" transform="translate(363,180)"/>
<path d="M0 0 C0.99 0.33 1.98 0.66 3 1 C3 2.65 3 4.3 3 6 C3.66 6 4.32 6 5 6 C4.67 7.32 4.34 8.64 4 10 C1 8 1 8 0.48828125 6.0546875 C0.32552083 4.03645833 0.16276042 2.01822917 0 0 Z " fill="#002C5B" transform="translate(456,163)"/>
<path d="M0 0 C0.99 0 1.98 0 3 0 C2.34 1.32 1.68 2.64 1 4 C-0.65 4 -2.3 4 -4 4 C-4 4.66 -4 5.32 -4 6 C-4.99 6 -5.98 6 -7 6 C-7 5.01 -7 4.02 -7 3 C-4.69 3 -2.38 3 0 3 C0 2.01 0 1.02 0 0 Z " fill="#001734" transform="translate(376,331)"/>
<path d="M0 0 C0 0.66 0 1.32 0 2 C-1.32 2 -2.64 2 -4 2 C-4 2.66 -4 3.32 -4 4 C-6.31 4.66 -8.62 5.32 -11 6 C-11 5.01 -11 4.02 -11 3 C-9.35 3 -7.7 3 -6 3 C-6 2.34 -6 1.68 -6 1 C-3.92446352 0.4465236 -2.15634036 0 0 0 Z " fill="#A65111" transform="translate(375,271)"/>
<path d="M0 0 C0.99 0.33 1.98 0.66 3 1 C2.34 1 1.68 1 1 1 C1 2.32 1 3.64 1 5 C-1 7 -1 7 -4 9 C-3.46930939 5.17902761 -2.50298434 2.93828597 0 0 Z " fill="#96470E" transform="translate(399,243)"/>
<path d="M0 0 C0.66 0.33 1.32 0.66 2 1 C0.8125 3.4375 0.8125 3.4375 -1 6 C-3.6875 6.8125 -3.6875 6.8125 -6 7 C-6 6.01 -6 5.02 -6 4 C-4.68 4 -3.36 4 -2 4 C-2 3.34 -2 2.68 -2 2 C-1.34 2 -0.68 2 0 2 C0 1.34 0 0.68 0 0 Z " fill="#A95612" transform="translate(365,238)"/>
<path d="M0 0 C0.66 0 1.32 0 2 0 C2 0.66 2 1.32 2 2 C2.99 2.33 3.98 2.66 5 3 C5.33 4.98 5.66 6.96 6 9 C5.01 8.67 4.02 8.34 3 8 C3 6.68 3 5.36 3 4 C2.34 4 1.68 4 1 4 C0.67 2.68 0.34 1.36 0 0 Z " fill="#002A5A" transform="translate(419,157)"/>
<path d="M0 0 C0.99 0.33 1.98 0.66 3 1 C1.6875 3 1.6875 3 0 5 C-0.99 5 -1.98 5 -3 5 C-3 5.66 -3 6.32 -3 7 C-3.66 7 -4.32 7 -5 7 C-5 6.01 -5 5.02 -5 4 C-4.01 4 -3.02 4 -2 4 C-1.34 2.68 -0.68 1.36 0 0 Z " fill="#A74D10" transform="translate(381,264)"/>
<path d="M0 0 C0.33 1.32 0.66 2.64 1 4 C-2 6 -2 6 -5 6 C-4.67 4.68 -4.34 3.36 -4 2 C-2.68 2 -1.36 2 0 2 C0 1.34 0 0.68 0 0 Z " fill="#A05211" transform="translate(356,244)"/>
<path d="M0 0 C0.99 0 1.98 0 3 0 C3 0.66 3 1.32 3 2 C2.34 2 1.68 2 1 2 C1 3.65 1 5.3 1 7 C0.34 7 -0.32 7 -1 7 C-1.33 7.66 -1.66 8.32 -2 9 C-2 7.35 -2 5.7 -2 4 C-1.34 4 -0.68 4 0 4 C0 2.68 0 1.36 0 0 Z " fill="#944C0F" transform="translate(403,233)"/>
<path d="M0 0 C1.32 0 2.64 0 4 0 C4.33 1.98 4.66 3.96 5 6 C4.01 6 3.02 6 2 6 C2 4.68 2 3.36 2 2 C1.34 2 0.68 2 0 2 C0 1.34 0 0.68 0 0 Z " fill="#AA5613" transform="translate(371,190)"/>
<path d="M0 0 C0.66 0 1.32 0 2 0 C1.625 2.9375 1.625 2.9375 1 6 C0.01 6.495 0.01 6.495 -1 7 C-1.66 6.34 -2.32 5.68 -3 5 C-2.34 5 -1.68 5 -1 5 C-0.67 3.35 -0.34 1.7 0 0 Z " fill="#C56315" transform="translate(374,225)"/>
<path d="M0 0 C2.31 0 4.62 0 7 0 C6.01 0.495 6.01 0.495 5 1 C5 1.66 5 2.32 5 3 C3.35 3 1.7 3 0 3 C0 2.01 0 1.02 0 0 Z " fill="#00214E" transform="translate(358,336)"/>
<path d="M0 0 C0.66 0.33 1.32 0.66 2 1 C1.67 2.32 1.34 3.64 1 5 C-0.32 5.33 -1.64 5.66 -3 6 C-3 5.34 -3 4.68 -3 4 C-2.34 4 -1.68 4 -1 4 C-0.67 2.68 -0.34 1.36 0 0 Z " fill="#A05111" transform="translate(370,232)"/>
<path d="M0 0 C2 1 2 1 2 1 Z " fill="#000000" transform="translate(219,454)"/>
<path d="M0 0 C2 1 2 1 2 1 Z " fill="#000000" transform="translate(221,452)"/>
<path d="M0 0 C2 1 2 1 2 1 Z " fill="#000000" transform="translate(223,450)"/>
<path d="M0 0 C2 1 2 1 2 1 Z " fill="#7F0000" transform="translate(262,411)"/>
<path d="" fill="#7F0000" transform="translate(0,0)"/>
<path d="M0 0 C2 1 2 1 2 1 Z " fill="#000000" transform="translate(422,310)"/>
<path d="" fill="#000000" transform="translate(0,0)"/>
<path d="M0 0 C2 1 2 1 2 1 Z " fill="#FF0000" transform="translate(180,242)"/>
<path d="M0 0 C2 1 2 1 2 1 Z " fill="#000000" transform="translate(180,195)"/>
<path d="M0 0 C2 1 2 1 2 1 Z " fill="#000000" transform="translate(180,163)"/>
<path d="" fill="#FF0000" transform="translate(0,0)"/>
<path d="M0 0 C2 1 2 1 2 1 Z " fill="#FF0000" transform="translate(180,142)"/>
<path d="M0 0 C2 1 2 1 2 1 Z " fill="#FF0000" transform="translate(197,113)"/>
<path d="" fill="#000000" transform="translate(0,0)"/>
<path d="" fill="#000000" transform="translate(0,0)"/>
<path d="" fill="#000000" transform="translate(0,0)"/>
<path d="" fill="#000000" transform="translate(0,0)"/>
<path d="" fill="#000000" transform="translate(0,0)"/>
<path d="" fill="#000000" transform="translate(0,0)"/>
<path d="" fill="#000000" transform="translate(0,0)"/>
<path d="" fill="#000000" transform="translate(0,0)"/>
<path d="" fill="#000000" transform="translate(0,0)"/>
<path d="" fill="#000000" transform="translate(0,0)"/>
<path d="" fill="#000000" transform="translate(0,0)"/>
<path d="" fill="#000000" transform="translate(0,0)"/>
<path d="" fill="#000000" transform="translate(0,0)"/>
<path d="" fill="#000000" transform="translate(0,0)"/>
<path d="" fill="#000000" transform="translate(0,0)"/>
<path d="" fill="#FF0000" transform="translate(0,0)"/>
<path d="" fill="#FF0000" transform="translate(0,0)"/>
<path d="" fill="#FF0000" transform="translate(0,0)"/>
<path d="" fill="#FF0000" transform="translate(0,0)"/>
<path d="" fill="#FF0000" transform="translate(0,0)"/>
<path d="" fill="#FF0000" transform="translate(0,0)"/>
<path d="" fill="#FF0000" transform="translate(0,0)"/>
<path d="" fill="#000000" transform="translate(0,0)"/>
<path d="" fill="#000000" transform="translate(0,0)"/>
<path d="" fill="#000000" transform="translate(0,0)"/>
<path d="" fill="#000000" transform="translate(0,0)"/>
<path d="" fill="#000000" transform="translate(0,0)"/>
<path d="" fill="#000000" transform="translate(0,0)"/>
<path d="" fill="#000000" transform="translate(0,0)"/>
<path d="" fill="#000000" transform="translate(0,0)"/>
<path d="" fill="#000000" transform="translate(0,0)"/>
<path d="" fill="#FF0000" transform="translate(0,0)"/>
<path d="" fill="#FF0000" transform="translate(0,0)"/>
<path d="" fill="#000000" transform="translate(0,0)"/>
<path d="" fill="#FF0000" transform="translate(0,0)"/>
<path d="" fill="#FF0000" transform="translate(0,0)"/>
<path d="" fill="#0000FF" transform="translate(0,0)"/>
<path d="" fill="#FF0000" transform="translate(0,0)"/>
<path d="" fill="#000000" transform="translate(0,0)"/>
<path d="" fill="#000000" transform="translate(0,0)"/>
<path d="" fill="#FF0000" transform="translate(0,0)"/>
<path d="" fill="#000000" transform="translate(0,0)"/>
<path d="" fill="#0000FF" transform="translate(0,0)"/>
<path d="" fill="#000000" transform="translate(0,0)"/>
<path d="" fill="#FF0000" transform="translate(0,0)"/>
<path d="" fill="#FF0000" transform="translate(0,0)"/>
<path d="" fill="#FF0000" transform="translate(0,0)"/>
<path d="" fill="#000000" transform="translate(0,0)"/>
<path d="" fill="#000000" transform="translate(0,0)"/>
<path d="" fill="#FFFF00" transform="translate(0,0)"/>
<path d="" fill="#000000" transform="translate(0,0)"/>
<path d="" fill="#000000" transform="translate(0,0)"/>
<path d="" fill="#000000" transform="translate(0,0)"/>
<path d="" fill="#000000" transform="translate(0,0)"/>
<path d="" fill="#000000" transform="translate(0,0)"/>
<path d="" fill="#000000" transform="translate(0,0)"/>
<path d="" fill="#000000" transform="translate(0,0)"/>
<path d="" fill="#000000" transform="translate(0,0)"/>
<path d="" fill="#000000" transform="translate(0,0)"/>
<path d="" fill="#000000" transform="translate(0,0)"/>
<path d="" fill="#000000" transform="translate(0,0)"/>
<path d="" fill="#0000FF" transform="translate(0,0)"/>
<path d="" fill="#000000" transform="translate(0,0)"/>
<path d="" fill="#000000" transform="translate(0,0)"/>
<path d="" fill="#000000" transform="translate(0,0)"/>
<path d="" fill="#FFFF00" transform="translate(0,0)"/>
<path d="" fill="#000000" transform="translate(0,0)"/>
<path d="" fill="#000000" transform="translate(0,0)"/>
<path d="" fill="#000000" transform="translate(0,0)"/>
<path d="" fill="#0000FF" transform="translate(0,0)"/>
<path d="" fill="#000000" transform="translate(0,0)"/>
<path d="" fill="#FF0000" transform="translate(0,0)"/>
<path d="" fill="#FF0000" transform="translate(0,0)"/>
<path d="" fill="#FF0000" transform="translate(0,0)"/>
<path d="" fill="#FFFF00" transform="translate(0,0)"/>
<path d="" fill="#FFFF00" transform="translate(0,0)"/>
</svg>
