<?xml version="1.0" encoding="UTF-8"?>
<svg version="1.1" xmlns="http://www.w3.org/2000/svg" width="2033" height="759">
<path d="M0 0 C21.6275613 -0.12032643 21.6275613 -0.12032643 31.02929688 -0.14648438 C37.38085692 -0.1642414 43.73228421 -0.18496709 50.08374023 -0.22631836 C81.9736909 -0.42823354 112.0679746 0.29123644 143 9 C143.88816406 9.2470166 144.77632812 9.4940332 145.69140625 9.74853516 C179.90405309 19.52081268 210.46522276 38.50622697 236 63 C236.61633301 63.58378418 237.23266602 64.16756836 237.86767578 64.76904297 C248.03385673 74.43882346 256.85539553 84.58147522 265 96 C265.43473633 96.59538574 265.86947266 97.19077148 266.31738281 97.80419922 C291.14497593 131.94939645 305.95144783 175.7843779 307 218 C307.02046387 218.78342773 307.04092773 219.56685547 307.06201172 220.37402344 C308.49616879 283.92733119 285.6956696 343.41709647 241.73046875 389.4609375 C202.92341176 429.33972613 146.49196978 456.33339442 90.4686116 457.22136807 C85.7873569 457.25534483 81.10683901 457.24483905 76.42553711 457.22705078 C74.31468206 457.22648526 72.20382662 457.22680597 70.0929718 457.22793579 C64.41643829 457.22850481 58.73999094 457.21682423 53.06347728 457.20278788 C47.11113479 457.19020464 41.15878989 457.18910407 35.20643616 457.18673706 C23.95887224 457.18054446 12.71134764 457.16416395 1.46380097 457.14403808 C-11.35133789 457.12160964 -24.16647872 457.11066825 -36.98163235 457.10064721 C-63.32110995 457.07979555 -89.66055276 457.04466315 -116 457 C-115.92948284 458.33645175 -115.92948284 458.33645175 -115.85754108 459.69990253 C-114.71834012 481.64286141 -113.88141045 503.5805836 -113.35757923 525.54713917 C-113.0972914 536.17369991 -112.74341865 546.78007414 -112.15258789 557.39379883 C-107.97441604 633.91545673 -107.97441604 633.91545673 -129.18774402 658.18757808 C-140.07656273 670.16913691 -153.11075955 681.60699018 -167 690 C-167.66 690 -168.32 690 -169 690 C-169 496.62 -169 303.24 -169 104 C-151.51 104 -134.02 104 -116 104 C-116 203.33 -116 302.66 -116 405 C-83.804375 404.87625 -51.60875 404.7525 -18.4375 404.625 C-8.3098999 404.59100098 1.8177002 404.55700195 12.25219727 404.52197266 C21.41143612 404.4820182 21.41143612 404.4820182 30.57066345 404.43954468 C34.6179829 404.4208432 38.66528132 404.40739913 42.71263123 404.39730835 C91.26672926 404.27050753 138.30447476 401.93496442 179 372 C180.02996094 371.25363281 181.05992187 370.50726563 182.12109375 369.73828125 C194.51666085 360.58512075 205.65844891 350.28502096 215 338 C215.72445313 337.09121094 216.44890625 336.18242187 217.1953125 335.24609375 C245.18396185 299.40696958 257.05845063 253.21062453 252.23071289 208.22436523 C246.60334813 163.1475127 223.62859567 120.3315196 187.86230469 91.99121094 C157.30251959 68.40240511 120.33612457 54.06886789 81.51123047 53.79467773 C80.62219528 53.78477814 79.7331601 53.77487854 78.81718445 53.76467896 C75.91721132 53.73342469 73.01722189 53.70845132 70.1171875 53.68359375 C68.09123338 53.66299295 66.06528326 53.64199572 64.03933716 53.62062073 C58.73599506 53.56572259 53.43261628 53.51617257 48.12921143 53.46777344 C41.75049881 53.40843324 35.37185247 53.34238473 28.99319458 53.27747345 C19.32883726 53.1798705 9.66443521 53.09073681 0 53 C0 35.51 0 18.02 0 0 Z " fill="#003E80" transform="translate(437,69)"/>
<path d="M0 0 C17.16 0 34.32 0 52 0 C52 99.33 52 198.66 52 301 C125.12325744 307.36678147 125.12325744 307.36678147 192 281 C192.62261719 280.47019531 193.24523437 279.94039063 193.88671875 279.39453125 C205.3831025 268.93153031 212.82676165 251.97037013 214.22119141 236.5546875 C215.18887297 215.47158282 210.39984782 196.68774105 196.32763672 180.48754883 C184.43210575 167.46534862 167.63902605 159.35610041 150.12161255 157.61437988 C146.10884265 157.44874878 142.11292012 157.39303948 138.09765625 157.390625 C136.63934035 157.37559205 135.18104113 157.35885451 133.72276306 157.34051514 C129.94014574 157.29740145 126.15775765 157.2769694 122.37493896 157.26177979 C117.80648508 157.23850764 113.23827714 157.18614583 108.67002106 157.13883972 C101.77995114 157.07065726 94.89058174 157.03870026 88 157 C88 139.51 88 122.02 88 104 C104.53819905 103.87967357 104.53819905 103.87967357 111.69726562 103.85351562 C116.54412944 103.83572081 121.39082009 103.81488774 126.23754883 103.77368164 C130.15389437 103.74060154 134.07005371 103.72304695 137.9865284 103.71536827 C139.4657388 103.70991049 140.94494136 103.69925932 142.42407036 103.68280983 C156.25125499 103.5354364 169.94163241 105.06383301 183.0625 109.6875 C184.16899902 110.06986816 184.16899902 110.06986816 185.29785156 110.45996094 C217.07739304 121.83211836 242.36117603 145.2339414 256.875 175.625 C271.57338095 207.42580577 271.63103761 242.26757715 259.953125 274.96875 C254.03154944 290.7199027 244.50381759 303.81948726 233 316 C232.26394531 316.81210937 231.52789063 317.62421875 230.76953125 318.4609375 C210.28570994 340.21427538 179.25943121 352.98371342 149.58642387 354.08998299 C146.98993736 354.12186793 144.39524511 354.12386719 141.79858398 354.11352539 C140.82191269 354.11367142 139.84524139 354.11381744 138.838974 354.1139679 C135.6413239 354.11327653 132.44373355 354.10552075 129.24609375 354.09765625 C127.01693249 354.09578931 124.78777082 354.09436671 122.55860901 354.09336853 C116.71433361 354.08956508 110.87008338 354.07975348 105.02581787 354.06866455 C99.05302267 354.05840359 93.08022337 354.0538609 87.10742188 354.04882812 C75.40493513 354.03812914 63.7024736 354.02055007 52 354 C52 367.53 52 381.06 52 395 C34.84 395 17.68 395 0 395 C0 264.65 0 134.3 0 0 Z " fill="#F27A1B" transform="translate(372,69)"/>
<path d="M0 0 C31.55625 -0.061875 63.1125 -0.12375 95.625 -0.1875 C105.55287598 -0.21481201 115.48075195 -0.24212402 125.70947266 -0.27026367 C137.92456055 -0.28381348 137.92456055 -0.28381348 143.66073608 -0.28633118 C147.62815486 -0.28910233 151.59545062 -0.30024852 155.56283569 -0.31672668 C160.65119963 -0.33757497 165.73938925 -0.34342431 170.82779193 -0.33921683 C172.67790228 -0.34009432 174.52801985 -0.34588071 176.378093 -0.35764539 C208.58013461 -0.55261276 241.12373481 5.19311617 266 27 C266.74378906 27.63292969 267.48757813 28.26585937 268.25390625 28.91796875 C284.69120288 44.0042547 290.98369275 65.85369428 291.92529297 87.46362305 C292.62597026 112.91270553 283.74653648 133.60880223 266.375 152.0625 C254.85790722 163.26357499 240.17032467 170.15392407 225 175 C229.06275036 179.87852485 233.32440397 184.46055296 237.83154297 188.92919922 C238.48590836 189.58210434 239.14027374 190.23500946 239.81446838 190.90769958 C241.22269558 192.31214669 242.63207591 193.71543834 244.04250717 195.11767197 C246.27171167 197.33404168 248.49771451 199.55358303 250.72293091 201.7739563 C255.43748018 206.4771249 260.15596645 211.17633138 264.875 215.875 C270.36494326 221.34136639 275.8532739 226.80933177 281.33743668 232.28149796 C283.53583206 234.47338786 285.73720399 236.66225878 287.93869019 238.8510437 C289.27421438 240.18293856 290.60960016 241.51497222 291.94482422 242.84716797 C292.56189743 243.45907486 293.17897064 244.07098175 293.81474304 244.70143127 C295.2289299 246.11543853 296.6175978 247.55490306 298 249 C298 249.33 298 249.66 298 250 C277.98718115 254.55206022 251.32574974 259.34212242 232 250 C218.10030293 240.92153953 207.6943786 225.70215788 197.19556427 213.0956192 C181.10003926 193.91034178 167.03964405 178.82966605 141.04021072 176.42566872 C131.23017468 175.73965702 121.50817545 175.75322904 111.6875 176.1875 C110.61812698 176.23460743 109.54875397 176.28171486 108.44697571 176.33024979 C95.18707077 176.97007795 82.21493963 178.39189298 69 180 C69 165.48 69 150.96 69 136 C74.73600586 135.98598145 74.73600586 135.98598145 80.58789062 135.97167969 C93.26854042 135.93780627 105.94902105 135.88239779 118.62953949 135.81609726 C126.312437 135.77644614 133.99523415 135.74398348 141.67822266 135.72900391 C148.38204183 135.71591457 155.08563888 135.68876688 161.78933287 135.64538693 C165.33230187 135.62293394 168.8749986 135.60707945 172.41804504 135.60811615 C193.59536474 135.60771382 217.07912445 135.43015394 233.546875 119.7109375 C242.66980965 108.96941767 245.11325555 96.80746123 244 83 C242.4804253 72.60357645 238.46309968 62.85702361 229.94921875 56.30078125 C212.98062294 44.97704898 192.90196399 44.88225352 173.19189453 44.79467773 C171.74841487 44.78493099 170.30493786 44.77478399 168.86146355 44.76427555 C165.04178918 44.73754859 161.22210365 44.71620486 157.40238953 44.69608307 C153.80070757 44.67626327 150.19906626 44.65144609 146.59741211 44.6270752 C136.10663905 44.55893497 125.61581593 44.49868594 115.125 44.4375 C91.65375 44.293125 68.1825 44.14875 44 44 C44 111.98 44 179.96 44 250 C29.48 250 14.96 250 0 250 C0 167.5 0 85 0 0 Z " fill="#003E6B" transform="translate(1447,171)"/>
<path d="M0 0 C6.70892378 3.74498133 12.27646125 8.82742914 17.65344238 14.25668335 C18.31364616 14.91517828 18.97384994 15.5736732 19.65405989 16.25212252 C21.8451066 18.43989872 24.02897037 20.63470152 26.21289062 22.82958984 C27.78997543 24.40723929 29.36750175 25.98444749 30.94543457 27.56124878 C35.21377679 31.82901855 39.47593607 36.10291475 43.73699379 40.37795591 C48.19635837 44.84984581 52.66140931 49.31605071 57.12585449 53.78286743 C64.61382466 61.27634213 72.09829696 68.77329624 79.58007812 76.27294922 C87.28345178 83.99470475 94.98895242 91.71432763 102.69726562 99.43115234 C103.41825038 100.15294109 103.41825038 100.15294109 104.15380049 100.88931143 C108.33539513 105.07553229 112.51715028 109.2615928 116.6989212 113.44763756 C134.67812998 131.44563696 152.64678203 149.45413832 170.6171875 167.4609375 C171.1121875 83.3109375 171.1121875 83.3109375 171.6171875 -2.5390625 C186.1371875 -2.5390625 200.6571875 -2.5390625 215.6171875 -2.5390625 C215.68500351 28.06077162 215.73871465 58.66058164 215.77038349 89.26047266 C215.77413562 92.87286732 215.77801859 96.48526182 215.78198242 100.09765625 C215.78276935 100.81682055 215.78355628 101.53598484 215.78436706 102.276942 C215.79742186 113.92235961 215.8210761 125.5677328 215.84864589 137.21312405 C215.87669805 149.16190138 215.89336336 161.11065543 215.89945298 173.05946434 C215.90320037 179.77113145 215.91221534 186.48270594 215.93437767 193.19433975 C215.95471493 199.50944527 215.96102683 205.82440837 215.95651054 212.13954353 C215.95733697 214.45911368 215.96331891 216.7786885 215.97480392 219.09823036 C215.98970454 222.26236881 215.98614967 225.42596778 215.97795105 228.59011841 C215.98668957 229.5103599 215.9954281 230.43060139 216.00443143 231.37872899 C215.96356387 237.20421307 215.20460213 241.62421469 211.1171875 246.10546875 C205.6528685 250.36023797 201.38266385 251.22339595 194.6171875 250.4609375 C182.49016137 246.81449493 173.54638577 237.82423379 164.87451172 229.07470703 C163.722631 227.92361862 162.57009569 226.77318493 161.41696167 225.62335205 C158.30697905 222.51847317 155.20635465 219.40440362 152.10753012 216.2883935 C148.85147309 213.0172167 145.58722899 209.75422839 142.32400513 206.49020386 C136.84686969 201.00938408 131.37538567 195.52297582 125.90771484 190.03271484 C118.90618249 183.00231267 111.89541839 175.98119288 104.88166618 168.96298409 C98.83039625 162.90772238 92.78338525 156.84821257 86.73705149 150.78802252 C84.8035527 148.8504418 82.86948025 146.91343511 80.93532944 144.97650528 C77.88765897 141.92390928 74.84266942 138.86866232 71.79967117 135.811409 C70.68755836 134.69480804 69.57463205 133.57901657 68.46080017 132.4641304 C66.93092952 130.93248783 65.40418396 129.39779257 63.87814331 127.86233521 C63.02611265 127.00732988 62.17408199 126.15232456 61.29623222 125.27140999 C57.9589497 121.77040807 54.80223135 118.10098761 51.6171875 114.4609375 C39.4071875 102.2509375 27.1971875 90.0409375 14.6171875 77.4609375 C14.2871875 133.5609375 13.9571875 189.6609375 13.6171875 247.4609375 C-1.2328125 247.4609375 -16.0828125 247.4609375 -31.3828125 247.4609375 C-31.42692645 218.31349326 -31.46384594 189.16607254 -31.48494316 160.0186033 C-31.48744449 156.57530904 -31.49003314 153.13201485 -31.49267578 149.6887207 C-31.49346271 148.6604998 -31.49346271 148.6604998 -31.49426554 147.61150675 C-31.50296156 136.5210164 -31.51872711 125.43054685 -31.53711809 114.34006882 C-31.55583949 102.95515076 -31.56678432 91.57024808 -31.57098949 80.18531364 C-31.57359618 73.79271178 -31.57972044 67.40015703 -31.59427261 61.00757027 C-31.60786268 54.98877553 -31.61203222 48.97004726 -31.60902786 42.95123863 C-31.60957738 40.74419926 -31.61354629 38.53715762 -31.62122345 36.33013153 C-31.6312069 33.31164578 -31.6287689 30.29340939 -31.62332153 27.2749176 C-31.62914722 26.40621507 -31.6349729 25.53751253 -31.64097512 24.64248568 C-31.60090304 16.39982989 -30.72872732 9.0287757 -25.3828125 2.4609375 C-17.67760574 -4.49254177 -9.19065965 -3.72078609 0 0 Z " fill="#003E6B" transform="translate(1817.3828125,173.5390625)"/>
<path d="M0 0 C46.963125 -0.0928125 46.963125 -0.0928125 94.875 -0.1875 C109.66481689 -0.22846802 109.66481689 -0.22846802 124.75341797 -0.27026367 C136.85961914 -0.28381348 136.85961914 -0.28381348 142.53982544 -0.28633118 C146.47908675 -0.28910886 150.41822488 -0.30028184 154.35745239 -0.31672668 C159.40278873 -0.33750582 164.44794936 -0.34343662 169.49332452 -0.33921683 C171.33208779 -0.34009749 173.17085805 -0.34592577 175.00958419 -0.35764539 C189.99244134 -0.44860423 204.99898473 0.6605225 219.25 5.6875 C219.98613525 5.94168701 220.72227051 6.19587402 221.48071289 6.45776367 C233.43109856 10.77551413 243.55948137 17.51085146 253 26 C254.16982422 27.02867187 254.16982422 27.02867187 255.36328125 28.078125 C271.1072382 42.76160817 279.45372545 64.01990099 280.203125 85.33984375 C280.64318655 111.06394788 274.30213329 132.36110946 256.48291016 151.63037109 C239.16225884 169.46788145 213.52801655 179.76424552 188.77349854 180.24050903 C186.53943149 180.24621378 184.30531856 180.24120338 182.07128906 180.22705078 C180.22523575 180.22748886 180.22523575 180.22748886 178.34188843 180.22793579 C175.00789424 180.22679146 171.67415607 180.21684815 168.3402071 180.20278788 C164.84088731 180.19017872 161.34156313 180.18910207 157.84222412 180.18673706 C151.23397207 180.18055193 144.62578718 180.16418184 138.01756454 180.14403808 C130.4866047 180.12158602 122.95564144 180.11066238 115.42465639 180.10064721 C99.94972555 180.07981252 84.47488709 180.04317399 69 180 C69 165.48 69 150.96 69 136 C72.7738916 135.9906543 76.5477832 135.98130859 80.43603516 135.97167969 C92.94107891 135.93782827 105.44595068 135.8824324 117.95086098 135.81609726 C125.5284418 135.776421 133.1059205 135.74397095 140.68359375 135.72900391 C147.29437211 135.71592778 153.90492465 135.68881292 160.51557577 135.64538693 C164.01041564 135.62290476 167.50497841 135.60708125 170.999897 135.60811615 C174.91764124 135.60901158 178.83482688 135.57853926 182.75244141 135.54589844 C183.88965134 135.5509288 185.02686127 135.55595917 186.1985321 135.56114197 C201.03915451 135.37133994 213.73266744 130.7311274 224.8125 120.8125 C233.46424975 111.55762347 236.51229447 99.43680892 236.24609375 87.11328125 C235.33118347 75.53894014 231.3120869 65.82025703 222.875 57.75 C208.29102826 45.60078914 191.86495666 44.87490997 173.73779297 44.79467773 C172.30481253 44.78494237 170.87183483 44.77479587 169.43885994 44.76427555 C165.62930643 44.73742684 161.81974159 44.71614547 158.01014709 44.69608307 C154.42479127 44.67633904 150.83947761 44.65148636 147.25415039 44.6270752 C136.79446557 44.55879532 126.33472902 44.49863526 115.875 44.4375 C92.48625 44.293125 69.0975 44.14875 45 44 C45 111.98 45 179.96 45 250 C30.15 250 15.3 250 0 250 C0 167.5 0 85 0 0 Z " fill="#003E6B" transform="translate(809,171)"/>
<path d="M0 0 C14.85 0 29.7 0 45 0 C45.0093457 4.4852124 45.01869141 8.9704248 45.02832031 13.59155273 C45.06217538 28.45547077 45.11757344 43.31925186 45.18390274 58.18305874 C45.22357472 67.18983158 45.25602698 76.19651856 45.27099609 85.20336914 C45.2840744 93.06118485 45.31119489 100.91881066 45.35461307 108.77651936 C45.37709015 112.9304034 45.39291905 117.08405445 45.39188385 121.23800468 C44.92395976 156.71082435 44.92395976 156.71082435 61.76171875 186.97265625 C82.73632603 205.97059897 116.7065595 205.23260265 143.3125 205.1875 C144.03367004 205.18656342 144.75484009 205.18562683 145.49786377 205.18466187 C169.41441107 205.11754927 197.68026034 203.77377852 215.97265625 186.2421875 C225.98941914 175.16391795 231.07229132 160.36107207 231.15821838 145.50796509 C231.1680072 144.22076569 231.17779602 142.93356628 231.18788147 141.60736084 C231.19378452 140.19348182 231.19959504 138.7796024 231.20532227 137.36572266 C231.21490907 135.86731704 231.22491962 134.36891409 231.23532104 132.87051392 C231.26228925 128.81316444 231.28334243 124.75580342 231.30332303 120.69841433 C231.32523261 116.45430699 231.35259692 112.21023489 231.37937927 107.96615601 C231.42923905 99.93403374 231.47420272 91.90189185 231.51740164 83.86973131 C231.56683149 74.72343096 231.62172826 65.57716598 231.67708123 56.43089986 C231.79079816 37.62063131 231.89693787 18.81033015 232 0 C246.85 0 261.7 0 277 0 C277.06803048 19.17761847 277.12316278 38.35513745 277.15543652 57.53284645 C277.17082793 66.43974794 277.19176732 75.34656848 277.22631836 84.25341797 C277.25645982 92.02731588 277.27563093 99.8011551 277.28226548 107.57510984 C277.2861364 111.68166405 277.29506674 115.78805052 277.31719017 119.89455032 C277.48882769 153.08204479 276.89669112 189.1403664 253 215 C252.154375 215.92554688 251.30875 216.85109375 250.4375 217.8046875 C244.51116975 224.01723256 238.50157109 228.83946477 231 233 C230.10023438 233.51046875 229.20046875 234.0209375 228.2734375 234.546875 C206.01455283 246.44280785 180.39535876 250.11578558 155.453125 250.203125 C154.16549255 250.20882507 152.87786011 250.21452515 151.5512085 250.22039795 C148.83149836 250.23083934 146.11181713 250.23672456 143.39208984 250.24023438 C140.65204333 250.24458942 137.91231695 250.25837797 135.17236328 250.28125 C99.1299127 250.57588465 58.00579473 247.63120731 30.37109375 221.3671875 C29.58863281 220.58601562 28.80617188 219.80484375 28 219 C27.22785156 218.23945313 26.45570312 217.47890625 25.66015625 216.6953125 C-0.61737994 189.29480468 -0.3320748 150.8323938 -0.20278788 115.38993859 C-0.19012223 111.32077232 -0.18909774 107.25160177 -0.18673706 103.18241882 C-0.18056811 95.50838356 -0.1642207 87.83440658 -0.14403808 80.16039675 C-0.12153465 71.41043316 -0.11064967 62.66046651 -0.10064721 53.9104811 C-0.07984933 35.94028116 -0.04323188 17.97016093 0 0 Z " fill="#003E6B" transform="translate(1123,171)"/>
<path d="M0 0 C0.82978363 -0.00014603 1.65956726 -0.00029205 2.51449585 -0.0004425 C5.24691415 0.00025206 7.97926359 0.0080231 10.71166992 0.01586914 C12.61024437 0.01773494 14.5088193 0.01915808 16.40739441 0.02015686 C21.39685401 0.02396929 26.38628436 0.03378869 31.37573242 0.04486084 C36.47012944 0.05510236 41.5645312 0.05966035 46.65893555 0.06469727 C56.64918482 0.07541211 66.63940473 0.09299859 76.62963867 0.11352539 C76.62963867 7.70352539 76.62963867 15.29352539 76.62963867 23.11352539 C73.12632935 23.13539917 73.12632935 23.13539917 69.55224609 23.15771484 C61.80090369 23.20824702 54.04975825 23.27487404 46.29860973 23.3492403 C41.60306226 23.39380333 36.90759875 23.43308977 32.21191406 23.45996094 C27.67298881 23.48613513 23.13438912 23.52663536 18.59566689 23.57671165 C16.87153513 23.59328552 15.14734718 23.60485842 13.4231472 23.6111393 C-1.23346994 23.66988851 -14.65020407 24.91662248 -26.05786133 35.17602539 C-33.8110738 43.47015967 -36.77902643 53.89923967 -37.68286133 64.92602539 C-37.25233114 77.43672611 -33.04472301 86.89399615 -24.05786133 95.42602539 C-11.81983218 105.70270095 3.10920753 105.41995351 18.32885742 105.52758789 C20.01708384 105.54633398 21.70530123 105.56590985 23.39350891 105.58627319 C27.80083857 105.63723746 32.20819849 105.67705239 36.61566162 105.7144165 C41.12755599 105.75468216 45.63932839 105.80567066 50.15112305 105.85571289 C58.97721706 105.9520485 67.80336296 106.03559338 76.62963867 106.11352539 C76.62963867 113.70352539 76.62963867 121.29352539 76.62963867 129.11352539 C66.2317817 129.20446773 55.83419572 129.27760759 45.43602848 129.32077408 C40.60596311 129.34150835 35.77618765 129.36956171 30.94628906 129.4152832 C26.27132318 129.45925307 21.59663332 129.48276846 16.92147636 129.49303436 C15.15197857 129.5003352 13.38249315 129.51458696 11.61311531 129.53644562 C-10.08494014 129.79345064 -28.23889891 125.64841006 -44.37036133 110.11352539 C-58.24829671 94.53317247 -62.67152519 76.00446111 -61.57739258 55.56762695 C-60.15739452 38.73529147 -52.66389789 24.40864732 -39.9465332 13.39575195 C-28.61564352 4.17799597 -14.44535311 -0.06685453 0 0 Z " fill="#F27A1B" transform="translate(1492.370361328125,462.886474609375)"/>
<path d="M0 0 C36.96 0 73.92 0 112 0 C112 7.59 112 15.18 112 23 C82.63 23 53.26 23 23 23 C23 50.39 23 77.78 23 106 C52.37 106 81.74 106 112 106 C112 113.59 112 121.18 112 129 C75.04 129 38.08 129 0 129 C0 86.43 0 43.86 0 0 Z " fill="#F27A1B" transform="translate(1261,463)"/>
<path d="M0 0 C40.92 0 81.84 0 124 0 C124 7.59 124 15.18 124 23 C107.5 23 91 23 74 23 C74 57.98 74 92.96 74 129 C66.41 129 58.82 129 51 129 C51 94.02 51 59.04 51 23 C34.17 23 17.34 23 0 23 C0 15.41 0 7.82 0 0 Z " fill="#F27A1B" transform="translate(1085,463)"/>
<path d="M0 0 C17.16 0 34.32 0 52 0 C53.4142165 10.49108316 54.59956216 20.77266113 55.1875 31.3125 C55.23100964 32.08837337 55.27451927 32.86424675 55.31934738 33.66363144 C56.31091954 53.72550705 54.39843422 69.54998286 40.6796875 84.9375 C36.2123143 89.82387291 31.47056831 94.37282777 26.5625 98.8125 C25.95468563 99.36328342 25.34687126 99.91406685 24.72063828 100.48154068 C3.02454808 120 3.02454808 120 0 120 C0 80.4 0 40.8 0 0 Z " fill="#F27A1B" transform="translate(372,536)"/>
<path d="M0 0 C7.59 0 15.18 0 23 0 C23 42.57 23 85.14 23 129 C15.41 129 7.82 129 0 129 C0 111.51 0 94.02 0 76 C-24.75 76 -49.5 76 -75 76 C-75 68.08 -75 60.16 -75 52 C-50.25 52 -25.5 52 0 52 C0 34.84 0 17.68 0 0 Z " fill="#F27A1B" transform="translate(1735,463)"/>
<path d="M0 0 C7.92 0 15.84 0 24 0 C24 42.57 24 85.14 24 129 C16.08 129 8.16 129 0 129 C0 86.43 0 43.86 0 0 Z " fill="#F27A1B" transform="translate(1627,463)"/>
<path d="M0 0 C17.16 0 34.32 0 52 0 C52 17.49 52 34.98 52 53 C34.84 53 17.68 53 0 53 C0 35.51 0 18.02 0 0 Z " fill="#F27A1B" transform="translate(179,299)"/>
<path d="M0 0 C17.16 0 34.32 0 52 0 C52 17.49 52 34.98 52 53 C34.84 53 17.68 53 0 53 C0 35.51 0 18.02 0 0 Z " fill="#F27A1B" transform="translate(0,191)"/>
<path d="M0 0 C17.16 0 34.32 0 52 0 C52 17.49 52 34.98 52 53 C34.84 53 17.68 53 0 53 C0 35.51 0 18.02 0 0 Z " fill="#F27A1B" transform="translate(179,120)"/>
<path d="M0 0 C17.49 0 34.98 0 53 0 C53 17.16 53 34.32 53 52 C35.51 52 18.02 52 0 52 C0 34.84 0 17.68 0 0 Z " fill="#003E80" transform="translate(14,83)"/>
<path d="M0 0 C17.16 0 34.32 0 52 0 C52 17.49 52 34.98 52 53 C34.84 53 17.68 53 0 53 C0 35.51 0 18.02 0 0 Z " fill="#F27A1B" transform="translate(97,78)"/>
<path d="M0 0 C17.16 0 34.32 0 52 0 C52 17.16 52 34.32 52 52 C34.84 52 17.68 52 0 52 C0 34.84 0 17.68 0 0 Z " fill="#003E80" transform="translate(97,258)"/>
<path d="M0 0 C17.16 0 34.32 0 52 0 C52 17.16 52 34.32 52 52 C34.84 52 17.68 52 0 52 C0 34.84 0 17.68 0 0 Z " fill="#003E80" transform="translate(179,216)"/>
<path d="M0 0 C17.16 0 34.32 0 52 0 C52 17.16 52 34.32 52 52 C34.84 52 17.68 52 0 52 C0 34.84 0 17.68 0 0 Z " fill="#003E80" transform="translate(76,159)"/>
<path d="M0 0 C17.16 0 34.32 0 52 0 C52 17.16 52 34.32 52 52 C34.84 52 17.68 52 0 52 C0 34.84 0 17.68 0 0 Z " fill="#F27A1B" transform="translate(268,69)"/>
<path d="M0 0 C17.16 0 34.32 0 52 0 C52 17.16 52 34.32 52 52 C34.84 52 17.68 52 0 52 C0 34.84 0 17.68 0 0 Z " fill="#003E80" transform="translate(179,35)"/>
<path d="M0 0 C17.16 0 34.32 0 52 0 C52 17.16 52 34.32 52 52 C34.84 52 17.68 52 0 52 C0 34.84 0 17.68 0 0 Z " fill="#F27A1B" transform="translate(76,0)"/>
<path d="M0 0 C75.24 0 150.48 0 228 0 C228 2.97 228 5.94 228 9 C152.76 9 77.52 9 0 9 C0 6.03 0 3.06 0 0 Z " fill="#F27A1B" transform="translate(809,523)"/>
<path d="M0 0 C74.91 0 149.82 0 227 0 C227 2.97 227 5.94 227 9 C152.09 9 77.18 9 0 9 C0 6.03 0 3.06 0 0 Z " fill="#F27A1B" transform="translate(1806,523)"/>
<path d="M0 0 C24.42 0 48.84 0 74 0 C74 7.59 74 15.18 74 23 C49.58 23 25.16 23 0 23 C0 15.41 0 7.82 0 0 Z " fill="#F27A1B" transform="translate(1293,515)"/>
</svg>
